<?xml version="1.0" encoding="UTF-8" standalone="no"?>
<!DOCTYPE svg PUBLIC "-//W3C//DTD SVG 1.1//EN"
 "http://www.w3.org/Graphics/SVG/1.1/DTD/svg11.dtd">
<!-- Generated by graphviz version 2.40.1 (20161225.0304)
 -->
<!-- Pages: 1 -->
<svg width="170pt" height="474pt"
 viewBox="0.00 0.00 170.00 474.00" xmlns="http://www.w3.org/2000/svg" xmlns:xlink="http://www.w3.org/1999/xlink">
<g id="graph0" class="graph" transform="scale(1 1) rotate(0) translate(4 470)">
<polygon fill="#ffffff" stroke="transparent" points="-4,4 -4,-470 166,-470 166,4 -4,4"/>
<!-- A -->
<g id="node1" class="node">
<title>A</title>
<ellipse fill="none" stroke="#000000" cx="95" cy="-448" rx="27" ry="18"/>
<text text-anchor="middle" x="95" y="-443.8" font-family="Times,serif" font-size="14.00" fill="#000000">A</text>
</g>
<!-- A&#45;&gt;A -->
<g id="edge1" class="edge">
<title>A&#45;&gt;A</title>
<path fill="none" stroke="#000000" d="M119.5325,-455.752C130.5078,-456.4902 140,-453.9063 140,-448 140,-444.0317 135.7151,-441.5632 129.5743,-440.5944"/>
<polygon fill="#000000" stroke="#000000" points="129.6472,-437.0949 119.5325,-440.248 129.4059,-444.0908 129.6472,-437.0949"/>
<text text-anchor="middle" x="143.5" y="-443.8" font-family="Times,serif" font-size="14.00" fill="#000000">0</text>
</g>
<!-- B -->
<g id="node2" class="node">
<title>B</title>
<ellipse fill="none" stroke="#000000" cx="52" cy="-362" rx="27" ry="18"/>
<text text-anchor="middle" x="52" y="-357.8" font-family="Times,serif" font-size="14.00" fill="#000000">B</text>
</g>
<!-- A&#45;&gt;B -->
<g id="edge2" class="edge">
<title>A&#45;&gt;B</title>
<path fill="none" stroke="#000000" d="M75.739,-435.1226C68.2565,-429.0439 60.4325,-421.1154 56,-412 52.8273,-405.4754 51.296,-397.902 50.6738,-390.6534"/>
<polygon fill="#000000" stroke="#000000" points="54.1639,-390.3016 50.3273,-380.4259 47.168,-390.5387 54.1639,-390.3016"/>
<text text-anchor="middle" x="59.5" y="-400.8" font-family="Times,serif" font-size="14.00" fill="#000000">1</text>
</g>
<!-- B&#45;&gt;A -->
<g id="edge3" class="edge">
<title>B&#45;&gt;A</title>
<path fill="none" stroke="#000000" d="M60.542,-379.084C66.6053,-391.2105 74.8615,-407.7231 81.7723,-421.5447"/>
<polygon fill="#000000" stroke="#000000" points="78.6956,-423.2176 86.2983,-430.5966 84.9566,-420.0871 78.6956,-423.2176"/>
<text text-anchor="middle" x="79.5" y="-400.8" font-family="Times,serif" font-size="14.00" fill="#000000">0</text>
</g>
<!-- C -->
<g id="node3" class="node">
<title>C</title>
<ellipse fill="none" stroke="#000000" cx="27" cy="-276" rx="27" ry="18"/>
<text text-anchor="middle" x="27" y="-271.8" font-family="Times,serif" font-size="14.00" fill="#000000">C</text>
</g>
<!-- B&#45;&gt;C -->
<g id="edge4" class="edge">
<title>B&#45;&gt;C</title>
<path fill="none" stroke="#000000" d="M46.82,-344.1807C43.4009,-332.4191 38.8537,-316.7766 34.9772,-303.4416"/>
<polygon fill="#000000" stroke="#000000" points="38.3258,-302.4219 32.1734,-293.7964 31.604,-304.376 38.3258,-302.4219"/>
<text text-anchor="middle" x="44.5" y="-314.8" font-family="Times,serif" font-size="14.00" fill="#000000">1</text>
</g>
<!-- C&#45;&gt;C -->
<g id="edge5" class="edge">
<title>C&#45;&gt;C</title>
<path fill="none" stroke="#000000" d="M51.5325,-283.752C62.5078,-284.4902 72,-281.9063 72,-276 72,-272.0317 67.7151,-269.5632 61.5743,-268.5944"/>
<polygon fill="#000000" stroke="#000000" points="61.6472,-265.0949 51.5325,-268.248 61.4059,-272.0908 61.6472,-265.0949"/>
<text text-anchor="middle" x="75.5" y="-271.8" font-family="Times,serif" font-size="14.00" fill="#000000">1</text>
</g>
<!-- D -->
<g id="node4" class="node">
<title>D</title>
<ellipse fill="none" stroke="#000000" cx="95" cy="-190" rx="27" ry="18"/>
<text text-anchor="middle" x="95" y="-185.8" font-family="Times,serif" font-size="14.00" fill="#000000">D</text>
</g>
<!-- C&#45;&gt;D -->
<g id="edge6" class="edge">
<title>C&#45;&gt;D</title>
<path fill="none" stroke="#000000" d="M39.7903,-259.8241C49.953,-246.9712 64.3252,-228.7946 75.8581,-214.2089"/>
<polygon fill="#000000" stroke="#000000" points="78.8101,-216.1184 82.2671,-206.1034 73.3192,-211.7767 78.8101,-216.1184"/>
<text text-anchor="middle" x="68.5" y="-228.8" font-family="Times,serif" font-size="14.00" fill="#000000">0</text>
</g>
<!-- D&#45;&gt;A -->
<g id="edge7" class="edge">
<title>D&#45;&gt;A</title>
<path fill="none" stroke="#000000" d="M95,-208.122C95,-252.4188 95,-366.4447 95,-419.7484"/>
<polygon fill="#000000" stroke="#000000" points="91.5001,-419.8579 95,-429.8579 98.5001,-419.858 91.5001,-419.8579"/>
<text text-anchor="middle" x="98.5" y="-314.8" font-family="Times,serif" font-size="14.00" fill="#000000">0</text>
</g>
<!-- E -->
<g id="node5" class="node">
<title>E</title>
<ellipse fill="none" stroke="#000000" cx="135" cy="-104" rx="27" ry="18"/>
<text text-anchor="middle" x="135" y="-99.8" font-family="Times,serif" font-size="14.00" fill="#000000">E</text>
</g>
<!-- D&#45;&gt;E -->
<g id="edge8" class="edge">
<title>D&#45;&gt;E</title>
<path fill="none" stroke="#000000" d="M103.0946,-172.5966C108.679,-160.5902 116.2104,-144.3977 122.5535,-130.76"/>
<polygon fill="#000000" stroke="#000000" points="125.8736,-131.9208 126.9174,-121.3775 119.5266,-128.9686 125.8736,-131.9208"/>
<text text-anchor="middle" x="120.5" y="-142.8" font-family="Times,serif" font-size="14.00" fill="#000000">1</text>
</g>
<!-- E&#45;&gt;A -->
<g id="edge9" class="edge">
<title>E&#45;&gt;A</title>
<path fill="none" stroke="#000000" d="M140.9937,-121.892C146.2299,-139.1312 153,-166.0511 153,-190 153,-362 153,-362 153,-362 153,-387.2263 135.6344,-410.5949 119.9075,-426.5858"/>
<polygon fill="#000000" stroke="#000000" points="117.1737,-424.3597 112.4019,-433.8191 122.0312,-429.4 117.1737,-424.3597"/>
<text text-anchor="middle" x="156.5" y="-271.8" font-family="Times,serif" font-size="14.00" fill="#000000">0</text>
</g>
<!-- F -->
<g id="node6" class="node">
<title>F</title>
<ellipse fill="none" stroke="#000000" cx="83" cy="-18" rx="27" ry="18"/>
<text text-anchor="middle" x="83" y="-13.8" font-family="Times,serif" font-size="14.00" fill="#000000">F</text>
</g>
<!-- E&#45;&gt;F -->
<g id="edge10" class="edge">
<title>E&#45;&gt;F</title>
<path fill="none" stroke="#000000" d="M124.7265,-87.0092C117.2482,-74.6413 106.9897,-57.6752 98.5158,-43.6608"/>
<polygon fill="#000000" stroke="#000000" points="101.4215,-41.7019 93.2522,-34.9555 95.4314,-45.3239 101.4215,-41.7019"/>
<text text-anchor="middle" x="115.5" y="-56.8" font-family="Times,serif" font-size="14.00" fill="#000000">1</text>
</g>
<!-- F&#45;&gt;C -->
<g id="edge11" class="edge">
<title>F&#45;&gt;C</title>
<path fill="none" stroke="#000000" d="M79.0665,-36.122C69.4317,-80.5113 44.5985,-194.9211 33.0598,-248.0814"/>
<polygon fill="#000000" stroke="#000000" points="29.6387,-247.3431 30.9378,-257.8579 36.4794,-248.8279 29.6387,-247.3431"/>
<text text-anchor="middle" x="59.5" y="-142.8" font-family="Times,serif" font-size="14.00" fill="#000000">1</text>
</g>
<!-- F&#45;&gt;D -->
<g id="edge12" class="edge">
<title>F&#45;&gt;D</title>
<path fill="none" stroke="#000000" d="M84.2626,-36.0977C86.352,-66.0454 90.544,-126.1302 93.027,-161.7199"/>
<polygon fill="#000000" stroke="#000000" points="89.5509,-162.1859 93.7385,-171.9181 96.5339,-161.6987 89.5509,-162.1859"/>
<text text-anchor="middle" x="93.5" y="-99.8" font-family="Times,serif" font-size="14.00" fill="#000000">0</text>
</g>
</g>
</svg>
