<?xml version="1.0" encoding="UTF-8" standalone="no"?>
<!DOCTYPE svg PUBLIC "-//W3C//DTD SVG 1.1//EN"
 "http://www.w3.org/Graphics/SVG/1.1/DTD/svg11.dtd">
<!-- Generated by graphviz version 2.40.1 (20161225.0304)
 -->
<!-- Pages: 1 -->
<svg width="87pt" height="130pt"
 viewBox="0.00 0.00 87.00 130.00" xmlns="http://www.w3.org/2000/svg" xmlns:xlink="http://www.w3.org/1999/xlink">
<g id="graph0" class="graph" transform="scale(1 1) rotate(0) translate(4 126)">
<polygon fill="#ffffff" stroke="transparent" points="-4,4 -4,-126 83,-126 83,4 -4,4"/>
<!-- A -->
<g id="node1" class="node">
<title>A</title>
<ellipse fill="none" stroke="#000000" cx="27" cy="-104" rx="27" ry="18"/>
<text text-anchor="middle" x="27" y="-99.8" font-family="Times,serif" font-size="14.00" fill="#000000">A</text>
</g>
<!-- A&#45;&gt;A -->
<g id="edge1" class="edge">
<title>A&#45;&gt;A</title>
<path fill="none" stroke="#000000" d="M51.5325,-111.752C62.5078,-112.4902 72,-109.9063 72,-104 72,-100.0317 67.7151,-97.5632 61.5743,-96.5944"/>
<polygon fill="#000000" stroke="#000000" points="61.6472,-93.0949 51.5325,-96.248 61.4059,-100.0908 61.6472,-93.0949"/>
<text text-anchor="middle" x="75.5" y="-99.8" font-family="Times,serif" font-size="14.00" fill="#000000">1</text>
</g>
<!-- B -->
<g id="node2" class="node">
<title>B</title>
<ellipse fill="none" stroke="#000000" cx="27" cy="-18" rx="27" ry="18"/>
<text text-anchor="middle" x="27" y="-13.8" font-family="Times,serif" font-size="14.00" fill="#000000">B</text>
</g>
<!-- A&#45;&gt;B -->
<g id="edge2" class="edge">
<title>A&#45;&gt;B</title>
<path fill="none" stroke="#000000" d="M19.8573,-86.3405C17.8734,-80.5903 15.992,-74.1128 15,-68 13.7948,-60.5733 14.6838,-52.6173 16.4188,-45.2855"/>
<polygon fill="#000000" stroke="#000000" points="19.8457,-46.0374 19.3046,-35.4563 13.1292,-44.0654 19.8457,-46.0374"/>
<text text-anchor="middle" x="18.5" y="-56.8" font-family="Times,serif" font-size="14.00" fill="#000000">0</text>
</g>
<!-- B&#45;&gt;A -->
<g id="edge3" class="edge">
<title>B&#45;&gt;A</title>
<path fill="none" stroke="#000000" d="M27,-36.2121C27,-47.6086 27,-62.5329 27,-75.4762"/>
<polygon fill="#000000" stroke="#000000" points="23.5001,-75.7616 27,-85.7616 30.5001,-75.7616 23.5001,-75.7616"/>
<text text-anchor="middle" x="30.5" y="-56.8" font-family="Times,serif" font-size="14.00" fill="#000000">1</text>
</g>
<!-- B&#45;&gt;B -->
<g id="edge4" class="edge">
<title>B&#45;&gt;B</title>
<path fill="none" stroke="#000000" d="M51.5325,-25.752C62.5078,-26.4902 72,-23.9063 72,-18 72,-14.0317 67.7151,-11.5632 61.5743,-10.5944"/>
<polygon fill="#000000" stroke="#000000" points="61.6472,-7.0949 51.5325,-10.248 61.4059,-14.0908 61.6472,-7.0949"/>
<text text-anchor="middle" x="75.5" y="-13.8" font-family="Times,serif" font-size="14.00" fill="#000000">0</text>
</g>
</g>
</svg>
