<?xml version="1.0" encoding="UTF-8" standalone="no"?>
<!DOCTYPE svg PUBLIC "-//W3C//DTD SVG 1.1//EN"
 "http://www.w3.org/Graphics/SVG/1.1/DTD/svg11.dtd">
<!-- Generated by graphviz version 2.40.1 (20161225.0304)
 -->
<!-- Pages: 1 -->
<svg width="119pt" height="216pt"
 viewBox="0.00 0.00 119.00 216.00" xmlns="http://www.w3.org/2000/svg" xmlns:xlink="http://www.w3.org/1999/xlink">
<g id="graph0" class="graph" transform="scale(1 1) rotate(0) translate(4 212)">
<polygon fill="#ffffff" stroke="transparent" points="-4,4 -4,-212 115,-212 115,4 -4,4"/>
<!-- A -->
<g id="node1" class="node">
<title>A</title>
<ellipse fill="none" stroke="#000000" cx="57" cy="-190" rx="27" ry="18"/>
<text text-anchor="middle" x="57" y="-185.8" font-family="Times,serif" font-size="14.00" fill="#000000">A</text>
</g>
<!-- A&#45;&gt;A -->
<g id="edge1" class="edge">
<title>A&#45;&gt;A</title>
<path fill="none" stroke="#000000" d="M81.5325,-197.752C92.5078,-198.4902 102,-195.9063 102,-190 102,-186.0317 97.7151,-183.5632 91.5743,-182.5944"/>
<polygon fill="#000000" stroke="#000000" points="91.6472,-179.0949 81.5325,-182.248 91.4059,-186.0908 91.6472,-179.0949"/>
<text text-anchor="middle" x="105.5" y="-185.8" font-family="Times,serif" font-size="14.00" fill="#000000">0</text>
</g>
<!-- B -->
<g id="node2" class="node">
<title>B</title>
<ellipse fill="none" stroke="#000000" cx="27" cy="-104" rx="27" ry="18"/>
<text text-anchor="middle" x="27" y="-99.8" font-family="Times,serif" font-size="14.00" fill="#000000">B</text>
</g>
<!-- A&#45;&gt;B -->
<g id="edge2" class="edge">
<title>A&#45;&gt;B</title>
<path fill="none" stroke="#000000" d="M42.4237,-174.7126C37.5893,-168.7156 32.7453,-161.4809 30,-154 27.504,-147.1985 26.3149,-139.5284 25.8464,-132.2755"/>
<polygon fill="#000000" stroke="#000000" points="29.3413,-132.0122 25.6072,-122.0972 22.3432,-132.1767 29.3413,-132.0122"/>
<text text-anchor="middle" x="33.5" y="-142.8" font-family="Times,serif" font-size="14.00" fill="#000000">1</text>
</g>
<!-- B&#45;&gt;A -->
<g id="edge3" class="edge">
<title>B&#45;&gt;A</title>
<path fill="none" stroke="#000000" d="M33.2081,-121.7964C37.3092,-133.5531 42.7655,-149.1945 47.4183,-162.5326"/>
<polygon fill="#000000" stroke="#000000" points="44.1855,-163.8916 50.784,-172.1807 50.7949,-161.5859 44.1855,-163.8916"/>
<text text-anchor="middle" x="46.5" y="-142.8" font-family="Times,serif" font-size="14.00" fill="#000000">0</text>
</g>
<!-- C -->
<g id="node3" class="node">
<title>C</title>
<ellipse fill="none" stroke="#000000" cx="59" cy="-18" rx="27" ry="18"/>
<text text-anchor="middle" x="59" y="-13.8" font-family="Times,serif" font-size="14.00" fill="#000000">C</text>
</g>
<!-- B&#45;&gt;C -->
<g id="edge4" class="edge">
<title>B&#45;&gt;C</title>
<path fill="none" stroke="#000000" d="M33.6304,-86.1807C38.036,-74.3407 43.905,-58.5679 48.8883,-45.1752"/>
<polygon fill="#000000" stroke="#000000" points="52.2804,-46.095 52.4876,-35.5022 45.7199,-43.6538 52.2804,-46.095"/>
<text text-anchor="middle" x="47.5" y="-56.8" font-family="Times,serif" font-size="14.00" fill="#000000">1</text>
</g>
<!-- C&#45;&gt;A -->
<g id="edge5" class="edge">
<title>C&#45;&gt;A</title>
<path fill="none" stroke="#000000" d="M60.5955,-36.0391C62.2207,-56.7818 64.3274,-91.8541 63,-122 62.4234,-135.0952 61.2251,-149.5678 60.0499,-161.7833"/>
<polygon fill="#000000" stroke="#000000" points="56.5562,-161.546 59.0393,-171.8458 63.5212,-162.2456 56.5562,-161.546"/>
<text text-anchor="middle" x="66.5" y="-99.8" font-family="Times,serif" font-size="14.00" fill="#000000">0</text>
</g>
<!-- C&#45;&gt;C -->
<g id="edge6" class="edge">
<title>C&#45;&gt;C</title>
<path fill="none" stroke="#000000" d="M83.5325,-25.752C94.5078,-26.4902 104,-23.9063 104,-18 104,-14.0317 99.7151,-11.5632 93.5743,-10.5944"/>
<polygon fill="#000000" stroke="#000000" points="93.6472,-7.0949 83.5325,-10.248 93.4059,-14.0908 93.6472,-7.0949"/>
<text text-anchor="middle" x="107.5" y="-13.8" font-family="Times,serif" font-size="14.00" fill="#000000">1</text>
</g>
</g>
</svg>
