<?xml version="1.0" encoding="UTF-8" standalone="no"?>
<!DOCTYPE svg PUBLIC "-//W3C//DTD SVG 1.1//EN"
 "http://www.w3.org/Graphics/SVG/1.1/DTD/svg11.dtd">
<!-- Generated by graphviz version 2.40.1 (20161225.0304)
 -->
<!-- Pages: 1 -->
<svg width="182pt" height="238pt"
 viewBox="0.00 0.00 182.47 238.00" xmlns="http://www.w3.org/2000/svg" xmlns:xlink="http://www.w3.org/1999/xlink">
<g id="graph0" class="graph" transform="scale(1 1) rotate(0) translate(4 234)">
<polygon fill="#ffffff" stroke="transparent" points="-4,4 -4,-234 178.4707,-234 178.4707,4 -4,4"/>
<text text-anchor="middle" x="87.2354" y="-6.8" font-family="Times,serif" font-size="14.00" fill="#000000">Sequence Detector for `011`</text>
<!-- A -->
<g id="node1" class="node">
<title>A</title>
<ellipse fill="none" stroke="#000000" cx="93.7905" cy="-212" rx="27" ry="18"/>
<text text-anchor="middle" x="93.7905" y="-207.8" font-family="Times,serif" font-size="14.00" fill="#000000">A</text>
</g>
<!-- A&#45;&gt;A -->
<g id="edge1" class="edge">
<title>A&#45;&gt;A</title>
<path fill="none" stroke="#000000" d="M118.323,-219.752C129.2983,-220.4902 138.7905,-217.9063 138.7905,-212 138.7905,-208.0317 134.5056,-205.5632 128.3649,-204.5944"/>
<polygon fill="#000000" stroke="#000000" points="128.4377,-201.0949 118.323,-204.248 128.1964,-208.0908 128.4377,-201.0949"/>
<text text-anchor="middle" x="147.7354" y="-207.8" font-family="Times,serif" font-size="14.00" fill="#000000">1/0</text>
</g>
<!-- B -->
<g id="node2" class="node">
<title>B</title>
<ellipse fill="none" stroke="#000000" cx="44.7905" cy="-126" rx="27" ry="18"/>
<text text-anchor="middle" x="44.7905" y="-121.8" font-family="Times,serif" font-size="14.00" fill="#000000">B</text>
</g>
<!-- A&#45;&gt;B -->
<g id="edge2" class="edge">
<title>A&#45;&gt;B</title>
<path fill="none" stroke="#000000" d="M84.1097,-195.0092C77.0629,-182.6413 67.3962,-165.6752 59.4112,-151.6608"/>
<polygon fill="#000000" stroke="#000000" points="62.4428,-149.9115 54.4512,-142.9555 56.3608,-153.3769 62.4428,-149.9115"/>
<text text-anchor="middle" x="81.7354" y="-164.8" font-family="Times,serif" font-size="14.00" fill="#000000">0/0</text>
</g>
<!-- B&#45;&gt;B -->
<g id="edge3" class="edge">
<title>B&#45;&gt;B</title>
<path fill="none" stroke="#000000" d="M69.323,-133.752C80.2983,-134.4902 89.7905,-131.9063 89.7905,-126 89.7905,-122.0317 85.5056,-119.5632 79.3649,-118.5944"/>
<polygon fill="#000000" stroke="#000000" points="79.4377,-115.0949 69.323,-118.248 79.1964,-122.0908 79.4377,-115.0949"/>
<text text-anchor="middle" x="98.7354" y="-121.8" font-family="Times,serif" font-size="14.00" fill="#000000">0/0</text>
</g>
<!-- C -->
<g id="node3" class="node">
<title>C</title>
<ellipse fill="none" stroke="#000000" cx="85.7905" cy="-40" rx="27" ry="18"/>
<text text-anchor="middle" x="85.7905" y="-35.8" font-family="Times,serif" font-size="14.00" fill="#000000">C</text>
</g>
<!-- B&#45;&gt;C -->
<g id="edge4" class="edge">
<title>B&#45;&gt;C</title>
<path fill="none" stroke="#000000" d="M41.7965,-107.6364C41.0179,-97.826 41.4184,-85.7891 45.9009,-76 48.7045,-69.8773 53.0987,-64.3451 57.9636,-59.5572"/>
<polygon fill="#000000" stroke="#000000" points="60.6151,-61.8878 65.8349,-52.6681 56.0049,-56.6203 60.6151,-61.8878"/>
<text text-anchor="middle" x="55.7354" y="-78.8" font-family="Times,serif" font-size="14.00" fill="#000000">1/0</text>
</g>
<!-- C&#45;&gt;A -->
<g id="edge5" class="edge">
<title>C&#45;&gt;A</title>
<path fill="none" stroke="#000000" d="M95.6433,-56.9407C102.8196,-70.3084 111.9315,-89.6924 115.7905,-108 121.3188,-134.2269 113.4937,-164.1684 105.6872,-185.1686"/>
<polygon fill="#000000" stroke="#000000" points="102.3391,-184.1177 101.915,-194.704 108.8482,-186.6927 102.3391,-184.1177"/>
<text text-anchor="middle" x="126.7354" y="-121.8" font-family="Times,serif" font-size="14.00" fill="#000000">1/1</text>
</g>
<!-- C&#45;&gt;B -->
<g id="edge6" class="edge">
<title>C&#45;&gt;B</title>
<path fill="none" stroke="#000000" d="M78.3555,-57.7259C74.2278,-67.3494 68.9063,-79.4113 63.7905,-90 62.237,-93.2155 60.5565,-96.5642 58.8597,-99.8682"/>
<polygon fill="#000000" stroke="#000000" points="55.6616,-98.431 54.1262,-108.9141 61.8638,-101.6765 55.6616,-98.431"/>
<text text-anchor="middle" x="79.7354" y="-78.8" font-family="Times,serif" font-size="14.00" fill="#000000">0/0</text>
</g>
</g>
</svg>
