<?xml version="1.0" encoding="UTF-8" standalone="no"?>
<!DOCTYPE svg PUBLIC "-//W3C//DTD SVG 1.1//EN"
 "http://www.w3.org/Graphics/SVG/1.1/DTD/svg11.dtd">
<!-- Generated by graphviz version 2.40.1 (20161225.0304)
 -->
<!-- Pages: 1 -->
<svg width="197pt" height="238pt"
 viewBox="0.00 0.00 196.87 238.00" xmlns="http://www.w3.org/2000/svg" xmlns:xlink="http://www.w3.org/1999/xlink">
<g id="graph0" class="graph" transform="scale(1 1) rotate(0) translate(4 234)">
<polygon fill="#ffffff" stroke="transparent" points="-4,4 -4,-234 192.8672,-234 192.8672,4 -4,4"/>
<text text-anchor="middle" x="94.4336" y="-6.8" font-family="Times,serif" font-size="14.00" fill="#000000">Mealy Machine to detect `011`</text>
<!-- A -->
<g id="node1" class="node">
<title>A</title>
<ellipse fill="none" stroke="#000000" cx="100.9888" cy="-212" rx="27" ry="18"/>
<text text-anchor="middle" x="100.9888" y="-207.8" font-family="Times,serif" font-size="14.00" fill="#000000">A</text>
</g>
<!-- A&#45;&gt;A -->
<g id="edge1" class="edge">
<title>A&#45;&gt;A</title>
<path fill="none" stroke="#000000" d="M125.5212,-219.752C136.4966,-220.4902 145.9888,-217.9063 145.9888,-212 145.9888,-208.0317 141.7038,-205.5632 135.5631,-204.5944"/>
<polygon fill="#000000" stroke="#000000" points="135.636,-201.0949 125.5212,-204.248 135.3946,-208.0908 135.636,-201.0949"/>
<text text-anchor="middle" x="154.9336" y="-207.8" font-family="Times,serif" font-size="14.00" fill="#000000">1/0</text>
</g>
<!-- B -->
<g id="node2" class="node">
<title>B</title>
<ellipse fill="none" stroke="#000000" cx="51.9888" cy="-126" rx="27" ry="18"/>
<text text-anchor="middle" x="51.9888" y="-121.8" font-family="Times,serif" font-size="14.00" fill="#000000">B</text>
</g>
<!-- A&#45;&gt;B -->
<g id="edge2" class="edge">
<title>A&#45;&gt;B</title>
<path fill="none" stroke="#000000" d="M91.3079,-195.0092C84.2612,-182.6413 74.5944,-165.6752 66.6095,-151.6608"/>
<polygon fill="#000000" stroke="#000000" points="69.6411,-149.9115 61.6495,-142.9555 63.559,-153.3769 69.6411,-149.9115"/>
<text text-anchor="middle" x="88.9336" y="-164.8" font-family="Times,serif" font-size="14.00" fill="#000000">0/0</text>
</g>
<!-- B&#45;&gt;B -->
<g id="edge3" class="edge">
<title>B&#45;&gt;B</title>
<path fill="none" stroke="#000000" d="M76.5212,-133.752C87.4966,-134.4902 96.9888,-131.9063 96.9888,-126 96.9888,-122.0317 92.7038,-119.5632 86.5631,-118.5944"/>
<polygon fill="#000000" stroke="#000000" points="86.636,-115.0949 76.5212,-118.248 86.3946,-122.0908 86.636,-115.0949"/>
<text text-anchor="middle" x="105.9336" y="-121.8" font-family="Times,serif" font-size="14.00" fill="#000000">0/0</text>
</g>
<!-- C -->
<g id="node3" class="node">
<title>C</title>
<ellipse fill="none" stroke="#000000" cx="92.9888" cy="-40" rx="27" ry="18"/>
<text text-anchor="middle" x="92.9888" y="-35.8" font-family="Times,serif" font-size="14.00" fill="#000000">C</text>
</g>
<!-- B&#45;&gt;C -->
<g id="edge4" class="edge">
<title>B&#45;&gt;C</title>
<path fill="none" stroke="#000000" d="M48.9947,-107.6364C48.2161,-97.826 48.6167,-85.7891 53.0991,-76 55.9027,-69.8773 60.297,-64.3451 65.1619,-59.5572"/>
<polygon fill="#000000" stroke="#000000" points="67.8133,-61.8878 73.0332,-52.6681 63.2031,-56.6203 67.8133,-61.8878"/>
<text text-anchor="middle" x="62.9336" y="-78.8" font-family="Times,serif" font-size="14.00" fill="#000000">1/0</text>
</g>
<!-- C&#45;&gt;A -->
<g id="edge5" class="edge">
<title>C&#45;&gt;A</title>
<path fill="none" stroke="#000000" d="M102.8415,-56.9407C110.0178,-70.3084 119.1298,-89.6924 122.9888,-108 128.5171,-134.2269 120.6919,-164.1684 112.8854,-185.1686"/>
<polygon fill="#000000" stroke="#000000" points="109.5373,-184.1177 109.1133,-194.704 116.0465,-186.6927 109.5373,-184.1177"/>
<text text-anchor="middle" x="133.9336" y="-121.8" font-family="Times,serif" font-size="14.00" fill="#000000">1/1</text>
</g>
<!-- C&#45;&gt;B -->
<g id="edge6" class="edge">
<title>C&#45;&gt;B</title>
<path fill="none" stroke="#000000" d="M85.5537,-57.7259C81.426,-67.3494 76.1045,-79.4113 70.9888,-90 69.4353,-93.2155 67.7548,-96.5642 66.058,-99.8682"/>
<polygon fill="#000000" stroke="#000000" points="62.8598,-98.431 61.3245,-108.9141 69.062,-101.6765 62.8598,-98.431"/>
<text text-anchor="middle" x="86.9336" y="-78.8" font-family="Times,serif" font-size="14.00" fill="#000000">0/0</text>
</g>
</g>
</svg>
