<?xml version="1.0" encoding="UTF-8" standalone="no"?>
<!DOCTYPE svg PUBLIC "-//W3C//DTD SVG 1.1//EN"
 "http://www.w3.org/Graphics/SVG/1.1/DTD/svg11.dtd">
<!-- Generated by graphviz version 2.40.1 (20161225.0304)
 -->
<!-- Title: %3 Pages: 1 -->
<svg width="147pt" height="216pt"
 viewBox="0.00 0.00 146.89 216.00" xmlns="http://www.w3.org/2000/svg" xmlns:xlink="http://www.w3.org/1999/xlink">
<g id="graph0" class="graph" transform="scale(1 1) rotate(0) translate(4 212)">
<title>%3</title>
<polygon fill="#ffffff" stroke="transparent" points="-4,4 -4,-212 142.8896,-212 142.8896,4 -4,4"/>
<!-- A -->
<g id="node1" class="node">
<title>A</title>
<ellipse fill="none" stroke="#000000" cx="76" cy="-190" rx="27" ry="18"/>
<text text-anchor="middle" x="76" y="-185.8" font-family="Times,serif" font-size="14.00" fill="#000000">A</text>
</g>
<!-- A&#45;&gt;A -->
<g id="edge2" class="edge">
<title>A&#45;&gt;A</title>
<path fill="none" stroke="#000000" d="M100.5325,-197.752C111.5078,-198.4902 121,-195.9063 121,-190 121,-186.0317 116.7151,-183.5632 110.5743,-182.5944"/>
<polygon fill="#000000" stroke="#000000" points="110.6472,-179.0949 100.5325,-182.248 110.4059,-186.0908 110.6472,-179.0949"/>
<text text-anchor="middle" x="129.9448" y="-185.8" font-family="Times,serif" font-size="14.00" fill="#000000">1/0</text>
</g>
<!-- B -->
<g id="node2" class="node">
<title>B</title>
<ellipse fill="none" stroke="#000000" cx="27" cy="-104" rx="27" ry="18"/>
<text text-anchor="middle" x="27" y="-99.8" font-family="Times,serif" font-size="14.00" fill="#000000">B</text>
</g>
<!-- A&#45;&gt;B -->
<g id="edge1" class="edge">
<title>A&#45;&gt;B</title>
<path fill="none" stroke="#000000" d="M66.3192,-173.0092C59.2724,-160.6413 49.6057,-143.6752 41.6207,-129.6608"/>
<polygon fill="#000000" stroke="#000000" points="44.6523,-127.9115 36.6607,-120.9555 38.5702,-131.3769 44.6523,-127.9115"/>
<text text-anchor="middle" x="63.9448" y="-142.8" font-family="Times,serif" font-size="14.00" fill="#000000">0/0</text>
</g>
<!-- B&#45;&gt;B -->
<g id="edge4" class="edge">
<title>B&#45;&gt;B</title>
<path fill="none" stroke="#000000" d="M51.5325,-111.752C62.5078,-112.4902 72,-109.9063 72,-104 72,-100.0317 67.7151,-97.5632 61.5743,-96.5944"/>
<polygon fill="#000000" stroke="#000000" points="61.6472,-93.0949 51.5325,-96.248 61.4059,-100.0908 61.6472,-93.0949"/>
<text text-anchor="middle" x="80.9448" y="-99.8" font-family="Times,serif" font-size="14.00" fill="#000000">0/0</text>
</g>
<!-- C -->
<g id="node3" class="node">
<title>C</title>
<ellipse fill="none" stroke="#000000" cx="68" cy="-18" rx="27" ry="18"/>
<text text-anchor="middle" x="68" y="-13.8" font-family="Times,serif" font-size="14.00" fill="#000000">C</text>
</g>
<!-- B&#45;&gt;C -->
<g id="edge3" class="edge">
<title>B&#45;&gt;C</title>
<path fill="none" stroke="#000000" d="M24.006,-85.6364C23.2273,-75.826 23.6279,-63.7891 28.1104,-54 30.9139,-47.8773 35.3082,-42.3451 40.1731,-37.5572"/>
<polygon fill="#000000" stroke="#000000" points="42.8245,-39.8878 48.0444,-30.6681 38.2143,-34.6203 42.8245,-39.8878"/>
<text text-anchor="middle" x="37.9448" y="-56.8" font-family="Times,serif" font-size="14.00" fill="#000000">1/0</text>
</g>
<!-- C&#45;&gt;A -->
<g id="edge5" class="edge">
<title>C&#45;&gt;A</title>
<path fill="none" stroke="#000000" d="M77.8528,-34.9407C85.029,-48.3084 94.141,-67.6924 98,-86 103.5283,-112.2269 95.7032,-142.1684 87.8967,-163.1686"/>
<polygon fill="#000000" stroke="#000000" points="84.5485,-162.1177 84.1245,-172.704 91.0577,-164.6927 84.5485,-162.1177"/>
<text text-anchor="middle" x="108.9448" y="-99.8" font-family="Times,serif" font-size="14.00" fill="#000000">1/1</text>
</g>
<!-- C&#45;&gt;B -->
<g id="edge6" class="edge">
<title>C&#45;&gt;B</title>
<path fill="none" stroke="#000000" d="M60.5649,-35.7259C56.4373,-45.3494 51.1158,-57.4113 46,-68 44.4465,-71.2155 42.766,-74.5642 41.0692,-77.8682"/>
<polygon fill="#000000" stroke="#000000" points="37.871,-76.431 36.3357,-86.9141 44.0732,-79.6765 37.871,-76.431"/>
<text text-anchor="middle" x="61.9448" y="-56.8" font-family="Times,serif" font-size="14.00" fill="#000000">0/0</text>
</g>
</g>
</svg>
