<?xml version="1.0" encoding="UTF-8" standalone="no"?>
<!DOCTYPE svg PUBLIC "-//W3C//DTD SVG 1.1//EN"
 "http://www.w3.org/Graphics/SVG/1.1/DTD/svg11.dtd">
<!-- Generated by graphviz version 2.40.1 (20161225.0304)
 -->
<!-- Pages: 1 -->
<svg width="182pt" height="238pt"
 viewBox="0.00 0.00 181.96 238.00" xmlns="http://www.w3.org/2000/svg" xmlns:xlink="http://www.w3.org/1999/xlink">
<g id="graph0" class="graph" transform="scale(1 1) rotate(0) translate(4 234)">
<polygon fill="#ffffff" stroke="transparent" points="-4,4 -4,-234 177.958,-234 177.958,4 -4,4"/>
<text text-anchor="middle" x="86.979" y="-6.8" font-family="Times,serif" font-size="14.00" fill="#000000">Sequence Detector for `111`</text>
<!-- A -->
<g id="node1" class="node">
<title>A</title>
<ellipse fill="none" stroke="#000000" cx="83.5342" cy="-212" rx="27" ry="18"/>
<text text-anchor="middle" x="83.5342" y="-207.8" font-family="Times,serif" font-size="14.00" fill="#000000">A</text>
</g>
<!-- A&#45;&gt;A -->
<g id="edge1" class="edge">
<title>A&#45;&gt;A</title>
<path fill="none" stroke="#000000" d="M108.0667,-219.752C119.042,-220.4902 128.5342,-217.9063 128.5342,-212 128.5342,-208.0317 124.2493,-205.5632 118.1085,-204.5944"/>
<polygon fill="#000000" stroke="#000000" points="118.1814,-201.0949 108.0667,-204.248 117.94,-208.0908 118.1814,-201.0949"/>
<text text-anchor="middle" x="137.479" y="-207.8" font-family="Times,serif" font-size="14.00" fill="#000000">0/0</text>
</g>
<!-- B -->
<g id="node2" class="node">
<title>B</title>
<ellipse fill="none" stroke="#000000" cx="53.5342" cy="-126" rx="27" ry="18"/>
<text text-anchor="middle" x="53.5342" y="-121.8" font-family="Times,serif" font-size="14.00" fill="#000000">B</text>
</g>
<!-- A&#45;&gt;B -->
<g id="edge2" class="edge">
<title>A&#45;&gt;B</title>
<path fill="none" stroke="#000000" d="M63.4773,-199.3776C55.7639,-193.342 47.8128,-185.3767 43.6445,-176 40.4455,-168.8037 40.6661,-160.5678 42.3152,-152.8849"/>
<polygon fill="#000000" stroke="#000000" points="45.6889,-153.8182 45.1387,-143.2376 38.9707,-151.852 45.6889,-153.8182"/>
<text text-anchor="middle" x="53.479" y="-164.8" font-family="Times,serif" font-size="14.00" fill="#000000">1/0</text>
</g>
<!-- B&#45;&gt;A -->
<g id="edge3" class="edge">
<title>B&#45;&gt;A</title>
<path fill="none" stroke="#000000" d="M59.7422,-143.7964C63.8434,-155.5531 69.2997,-171.1945 73.9525,-184.5326"/>
<polygon fill="#000000" stroke="#000000" points="70.7197,-185.8916 77.3182,-194.1807 77.3291,-183.5859 70.7197,-185.8916"/>
<text text-anchor="middle" x="79.479" y="-164.8" font-family="Times,serif" font-size="14.00" fill="#000000">0/0</text>
</g>
<!-- C -->
<g id="node3" class="node">
<title>C</title>
<ellipse fill="none" stroke="#000000" cx="84.5342" cy="-40" rx="27" ry="18"/>
<text text-anchor="middle" x="84.5342" y="-35.8" font-family="Times,serif" font-size="14.00" fill="#000000">C</text>
</g>
<!-- B&#45;&gt;C -->
<g id="edge4" class="edge">
<title>B&#45;&gt;C</title>
<path fill="none" stroke="#000000" d="M59.9574,-108.1807C64.2253,-96.3407 69.9109,-80.5679 74.7385,-67.1752"/>
<polygon fill="#000000" stroke="#000000" points="78.1267,-68.0966 78.2253,-57.5022 71.5415,-65.7228 78.1267,-68.0966"/>
<text text-anchor="middle" x="80.479" y="-78.8" font-family="Times,serif" font-size="14.00" fill="#000000">1/0</text>
</g>
<!-- C&#45;&gt;A -->
<g id="edge5" class="edge">
<title>C&#45;&gt;A</title>
<path fill="none" stroke="#000000" d="M89.8961,-57.7825C91.3843,-63.5393 92.7943,-69.9896 93.5342,-76 98.9648,-120.1137 98.2212,-131.9187 92.5342,-176 92.1831,-178.7215 91.6997,-181.5339 91.1377,-184.3318"/>
<polygon fill="#000000" stroke="#000000" points="87.6959,-183.6808 88.8541,-194.2122 94.5161,-185.2572 87.6959,-183.6808"/>
<text text-anchor="middle" x="106.479" y="-121.8" font-family="Times,serif" font-size="14.00" fill="#000000">0/0</text>
</g>
<!-- C&#45;&gt;C -->
<g id="edge6" class="edge">
<title>C&#45;&gt;C</title>
<path fill="none" stroke="#000000" d="M109.0667,-47.752C120.042,-48.4902 129.5342,-45.9063 129.5342,-40 129.5342,-36.0317 125.2493,-33.5632 119.1085,-32.5944"/>
<polygon fill="#000000" stroke="#000000" points="119.1814,-29.0949 109.0667,-32.248 118.94,-36.0908 119.1814,-29.0949"/>
<text text-anchor="middle" x="138.479" y="-35.8" font-family="Times,serif" font-size="14.00" fill="#000000">1/1</text>
</g>
</g>
</svg>
