<?xml version="1.0" encoding="UTF-8" standalone="no"?>
<!DOCTYPE svg PUBLIC "-//W3C//DTD SVG 1.1//EN"
 "http://www.w3.org/Graphics/SVG/1.1/DTD/svg11.dtd">
<!-- Generated by graphviz version 2.40.1 (20161225.0304)
 -->
<!-- Pages: 1 -->
<svg width="183pt" height="238pt"
 viewBox="0.00 0.00 182.98 238.00" xmlns="http://www.w3.org/2000/svg" xmlns:xlink="http://www.w3.org/1999/xlink">
<g id="graph0" class="graph" transform="scale(1 1) rotate(0) translate(4 234)">
<polygon fill="#ffffff" stroke="transparent" points="-4,4 -4,-234 178.9834,-234 178.9834,4 -4,4"/>
<text text-anchor="middle" x="87.4917" y="-6.8" font-family="Times,serif" font-size="14.00" fill="#000000">Sequence Detector for `010`</text>
<!-- A -->
<g id="node1" class="node">
<title>A</title>
<ellipse fill="none" stroke="#000000" cx="94.0469" cy="-212" rx="27" ry="18"/>
<text text-anchor="middle" x="94.0469" y="-207.8" font-family="Times,serif" font-size="14.00" fill="#000000">A</text>
</g>
<!-- A&#45;&gt;A -->
<g id="edge1" class="edge">
<title>A&#45;&gt;A</title>
<path fill="none" stroke="#000000" d="M118.5793,-219.752C129.5547,-220.4902 139.0469,-217.9063 139.0469,-212 139.0469,-208.0317 134.7619,-205.5632 128.6212,-204.5944"/>
<polygon fill="#000000" stroke="#000000" points="128.6941,-201.0949 118.5793,-204.248 128.4527,-208.0908 128.6941,-201.0949"/>
<text text-anchor="middle" x="147.9917" y="-207.8" font-family="Times,serif" font-size="14.00" fill="#000000">1/0</text>
</g>
<!-- B -->
<g id="node2" class="node">
<title>B</title>
<ellipse fill="none" stroke="#000000" cx="45.0469" cy="-126" rx="27" ry="18"/>
<text text-anchor="middle" x="45.0469" y="-121.8" font-family="Times,serif" font-size="14.00" fill="#000000">B</text>
</g>
<!-- A&#45;&gt;B -->
<g id="edge2" class="edge">
<title>A&#45;&gt;B</title>
<path fill="none" stroke="#000000" d="M84.3661,-195.0092C77.3193,-182.6413 67.6525,-165.6752 59.6676,-151.6608"/>
<polygon fill="#000000" stroke="#000000" points="62.6992,-149.9115 54.7076,-142.9555 56.6171,-153.3769 62.6992,-149.9115"/>
<text text-anchor="middle" x="81.9917" y="-164.8" font-family="Times,serif" font-size="14.00" fill="#000000">0/0</text>
</g>
<!-- B&#45;&gt;B -->
<g id="edge3" class="edge">
<title>B&#45;&gt;B</title>
<path fill="none" stroke="#000000" d="M69.5793,-133.752C80.5547,-134.4902 90.0469,-131.9063 90.0469,-126 90.0469,-122.0317 85.7619,-119.5632 79.6212,-118.5944"/>
<polygon fill="#000000" stroke="#000000" points="79.6941,-115.0949 69.5793,-118.248 79.4527,-122.0908 79.6941,-115.0949"/>
<text text-anchor="middle" x="98.9917" y="-121.8" font-family="Times,serif" font-size="14.00" fill="#000000">0/0</text>
</g>
<!-- C -->
<g id="node3" class="node">
<title>C</title>
<ellipse fill="none" stroke="#000000" cx="86.0469" cy="-40" rx="27" ry="18"/>
<text text-anchor="middle" x="86.0469" y="-35.8" font-family="Times,serif" font-size="14.00" fill="#000000">C</text>
</g>
<!-- B&#45;&gt;C -->
<g id="edge4" class="edge">
<title>B&#45;&gt;C</title>
<path fill="none" stroke="#000000" d="M42.0528,-107.6364C41.2742,-97.826 41.6748,-85.7891 46.1572,-76 48.9608,-69.8773 53.3551,-64.3451 58.22,-59.5572"/>
<polygon fill="#000000" stroke="#000000" points="60.8714,-61.8878 66.0913,-52.6681 56.2612,-56.6203 60.8714,-61.8878"/>
<text text-anchor="middle" x="55.9917" y="-78.8" font-family="Times,serif" font-size="14.00" fill="#000000">1/0</text>
</g>
<!-- C&#45;&gt;A -->
<g id="edge5" class="edge">
<title>C&#45;&gt;A</title>
<path fill="none" stroke="#000000" d="M95.8996,-56.9407C103.0759,-70.3084 112.1879,-89.6924 116.0469,-108 121.5752,-134.2269 113.75,-164.1684 105.9435,-185.1686"/>
<polygon fill="#000000" stroke="#000000" points="102.5954,-184.1177 102.1714,-194.704 109.1046,-186.6927 102.5954,-184.1177"/>
<text text-anchor="middle" x="126.9917" y="-121.8" font-family="Times,serif" font-size="14.00" fill="#000000">1/0</text>
</g>
<!-- C&#45;&gt;B -->
<g id="edge6" class="edge">
<title>C&#45;&gt;B</title>
<path fill="none" stroke="#000000" d="M78.6118,-57.7259C74.4841,-67.3494 69.1626,-79.4113 64.0469,-90 62.4934,-93.2155 60.8129,-96.5642 59.1161,-99.8682"/>
<polygon fill="#000000" stroke="#000000" points="55.9179,-98.431 54.3826,-108.9141 62.1201,-101.6765 55.9179,-98.431"/>
<text text-anchor="middle" x="79.9917" y="-78.8" font-family="Times,serif" font-size="14.00" fill="#000000">0/1</text>
</g>
</g>
</svg>
