<?xml version="1.0" encoding="UTF-8" standalone="no"?>
<!DOCTYPE svg PUBLIC "-//W3C//DTD SVG 1.1//EN"
 "http://www.w3.org/Graphics/SVG/1.1/DTD/svg11.dtd">
<!-- Generated by graphviz version 2.40.1 (20161225.0304)
 -->
<!-- Pages: 1 -->
<svg width="197pt" height="238pt"
 viewBox="0.00 0.00 197.38 238.00" xmlns="http://www.w3.org/2000/svg" xmlns:xlink="http://www.w3.org/1999/xlink">
<g id="graph0" class="graph" transform="scale(1 1) rotate(0) translate(4 234)">
<polygon fill="#ffffff" stroke="transparent" points="-4,4 -4,-234 193.3799,-234 193.3799,4 -4,4"/>
<text text-anchor="middle" x="94.6899" y="-6.8" font-family="Times,serif" font-size="14.00" fill="#000000">Mealy Machine to detect `010`</text>
<!-- A -->
<g id="node1" class="node">
<title>A</title>
<ellipse fill="none" stroke="#000000" cx="101.2451" cy="-212" rx="27" ry="18"/>
<text text-anchor="middle" x="101.2451" y="-207.8" font-family="Times,serif" font-size="14.00" fill="#000000">A</text>
</g>
<!-- A&#45;&gt;A -->
<g id="edge1" class="edge">
<title>A&#45;&gt;A</title>
<path fill="none" stroke="#000000" d="M125.7776,-219.752C136.7529,-220.4902 146.2451,-217.9063 146.2451,-212 146.2451,-208.0317 141.9602,-205.5632 135.8194,-204.5944"/>
<polygon fill="#000000" stroke="#000000" points="135.8923,-201.0949 125.7776,-204.248 135.651,-208.0908 135.8923,-201.0949"/>
<text text-anchor="middle" x="155.1899" y="-207.8" font-family="Times,serif" font-size="14.00" fill="#000000">1/0</text>
</g>
<!-- B -->
<g id="node2" class="node">
<title>B</title>
<ellipse fill="none" stroke="#000000" cx="52.2451" cy="-126" rx="27" ry="18"/>
<text text-anchor="middle" x="52.2451" y="-121.8" font-family="Times,serif" font-size="14.00" fill="#000000">B</text>
</g>
<!-- A&#45;&gt;B -->
<g id="edge2" class="edge">
<title>A&#45;&gt;B</title>
<path fill="none" stroke="#000000" d="M91.5643,-195.0092C84.5175,-182.6413 74.8508,-165.6752 66.8658,-151.6608"/>
<polygon fill="#000000" stroke="#000000" points="69.8974,-149.9115 61.9058,-142.9555 63.8154,-153.3769 69.8974,-149.9115"/>
<text text-anchor="middle" x="89.1899" y="-164.8" font-family="Times,serif" font-size="14.00" fill="#000000">0/0</text>
</g>
<!-- B&#45;&gt;B -->
<g id="edge3" class="edge">
<title>B&#45;&gt;B</title>
<path fill="none" stroke="#000000" d="M76.7776,-133.752C87.7529,-134.4902 97.2451,-131.9063 97.2451,-126 97.2451,-122.0317 92.9602,-119.5632 86.8194,-118.5944"/>
<polygon fill="#000000" stroke="#000000" points="86.8923,-115.0949 76.7776,-118.248 86.651,-122.0908 86.8923,-115.0949"/>
<text text-anchor="middle" x="106.1899" y="-121.8" font-family="Times,serif" font-size="14.00" fill="#000000">0/0</text>
</g>
<!-- C -->
<g id="node3" class="node">
<title>C</title>
<ellipse fill="none" stroke="#000000" cx="93.2451" cy="-40" rx="27" ry="18"/>
<text text-anchor="middle" x="93.2451" y="-35.8" font-family="Times,serif" font-size="14.00" fill="#000000">C</text>
</g>
<!-- B&#45;&gt;C -->
<g id="edge4" class="edge">
<title>B&#45;&gt;C</title>
<path fill="none" stroke="#000000" d="M49.2511,-107.6364C48.4724,-97.826 48.873,-85.7891 53.3555,-76 56.1591,-69.8773 60.5533,-64.3451 65.4182,-59.5572"/>
<polygon fill="#000000" stroke="#000000" points="68.0696,-61.8878 73.2895,-52.6681 63.4594,-56.6203 68.0696,-61.8878"/>
<text text-anchor="middle" x="63.1899" y="-78.8" font-family="Times,serif" font-size="14.00" fill="#000000">1/0</text>
</g>
<!-- C&#45;&gt;A -->
<g id="edge5" class="edge">
<title>C&#45;&gt;A</title>
<path fill="none" stroke="#000000" d="M103.0979,-56.9407C110.2741,-70.3084 119.3861,-89.6924 123.2451,-108 128.7734,-134.2269 120.9483,-164.1684 113.1418,-185.1686"/>
<polygon fill="#000000" stroke="#000000" points="109.7936,-184.1177 109.3696,-194.704 116.3028,-186.6927 109.7936,-184.1177"/>
<text text-anchor="middle" x="134.1899" y="-121.8" font-family="Times,serif" font-size="14.00" fill="#000000">1/0</text>
</g>
<!-- C&#45;&gt;B -->
<g id="edge6" class="edge">
<title>C&#45;&gt;B</title>
<path fill="none" stroke="#000000" d="M85.81,-57.7259C81.6824,-67.3494 76.3609,-79.4113 71.2451,-90 69.6916,-93.2155 68.0111,-96.5642 66.3143,-99.8682"/>
<polygon fill="#000000" stroke="#000000" points="63.1162,-98.431 61.5808,-108.9141 69.3183,-101.6765 63.1162,-98.431"/>
<text text-anchor="middle" x="87.1899" y="-78.8" font-family="Times,serif" font-size="14.00" fill="#000000">0/1</text>
</g>
</g>
</svg>
