<?xml version="1.0" encoding="UTF-8" standalone="no"?>
<!DOCTYPE svg PUBLIC "-//W3C//DTD SVG 1.1//EN"
 "http://www.w3.org/Graphics/SVG/1.1/DTD/svg11.dtd">
<!-- Generated by graphviz version 2.40.1 (20161225.0304)
 -->
<!-- Title: %3 Pages: 1 -->
<svg width="129pt" height="216pt"
 viewBox="0.00 0.00 128.89 216.00" xmlns="http://www.w3.org/2000/svg" xmlns:xlink="http://www.w3.org/1999/xlink">
<g id="graph0" class="graph" transform="scale(1 1) rotate(0) translate(4 212)">
<title>%3</title>
<polygon fill="#ffffff" stroke="transparent" points="-4,4 -4,-212 124.8896,-212 124.8896,4 -4,4"/>
<!-- A -->
<g id="node1" class="node">
<title>A</title>
<ellipse fill="none" stroke="#000000" cx="57" cy="-190" rx="27" ry="18"/>
<text text-anchor="middle" x="57" y="-185.8" font-family="Times,serif" font-size="14.00" fill="#000000">A</text>
</g>
<!-- A&#45;&gt;A -->
<g id="edge2" class="edge">
<title>A&#45;&gt;A</title>
<path fill="none" stroke="#000000" d="M81.5325,-197.752C92.5078,-198.4902 102,-195.9063 102,-190 102,-186.0317 97.7151,-183.5632 91.5743,-182.5944"/>
<polygon fill="#000000" stroke="#000000" points="91.6472,-179.0949 81.5325,-182.248 91.4059,-186.0908 91.6472,-179.0949"/>
<text text-anchor="middle" x="110.9448" y="-185.8" font-family="Times,serif" font-size="14.00" fill="#000000">0/0</text>
</g>
<!-- B -->
<g id="node2" class="node">
<title>B</title>
<ellipse fill="none" stroke="#000000" cx="27" cy="-104" rx="27" ry="18"/>
<text text-anchor="middle" x="27" y="-99.8" font-family="Times,serif" font-size="14.00" fill="#000000">B</text>
</g>
<!-- A&#45;&gt;B -->
<g id="edge1" class="edge">
<title>A&#45;&gt;B</title>
<path fill="none" stroke="#000000" d="M36.9431,-177.3776C29.2297,-171.342 21.2787,-163.3767 17.1104,-154 13.9113,-146.8037 14.1319,-138.5678 15.7811,-130.8849"/>
<polygon fill="#000000" stroke="#000000" points="19.1547,-131.8182 18.6045,-121.2376 12.4365,-129.852 19.1547,-131.8182"/>
<text text-anchor="middle" x="26.9448" y="-142.8" font-family="Times,serif" font-size="14.00" fill="#000000">1/0</text>
</g>
<!-- B&#45;&gt;A -->
<g id="edge4" class="edge">
<title>B&#45;&gt;A</title>
<path fill="none" stroke="#000000" d="M33.2081,-121.7964C37.3092,-133.5531 42.7655,-149.1945 47.4183,-162.5326"/>
<polygon fill="#000000" stroke="#000000" points="44.1855,-163.8916 50.784,-172.1807 50.7949,-161.5859 44.1855,-163.8916"/>
<text text-anchor="middle" x="52.9448" y="-142.8" font-family="Times,serif" font-size="14.00" fill="#000000">0/0</text>
</g>
<!-- C -->
<g id="node3" class="node">
<title>C</title>
<ellipse fill="none" stroke="#000000" cx="58" cy="-18" rx="27" ry="18"/>
<text text-anchor="middle" x="58" y="-13.8" font-family="Times,serif" font-size="14.00" fill="#000000">C</text>
</g>
<!-- B&#45;&gt;C -->
<g id="edge3" class="edge">
<title>B&#45;&gt;C</title>
<path fill="none" stroke="#000000" d="M33.4232,-86.1807C37.6912,-74.3407 43.3767,-58.5679 48.2043,-45.1752"/>
<polygon fill="#000000" stroke="#000000" points="51.5926,-46.0966 51.6911,-35.5022 45.0073,-43.7228 51.5926,-46.0966"/>
<text text-anchor="middle" x="53.9448" y="-56.8" font-family="Times,serif" font-size="14.00" fill="#000000">1/0</text>
</g>
<!-- C&#45;&gt;A -->
<g id="edge6" class="edge">
<title>C&#45;&gt;A</title>
<path fill="none" stroke="#000000" d="M63.3619,-35.7825C64.8501,-41.5393 66.2601,-47.9896 67,-54 72.4306,-98.1137 71.687,-109.9187 66,-154 65.6489,-156.7215 65.1655,-159.5339 64.6035,-162.3318"/>
<polygon fill="#000000" stroke="#000000" points="61.1617,-161.6808 62.3199,-172.2122 67.982,-163.2572 61.1617,-161.6808"/>
<text text-anchor="middle" x="79.9448" y="-99.8" font-family="Times,serif" font-size="14.00" fill="#000000">0/0</text>
</g>
<!-- C&#45;&gt;C -->
<g id="edge5" class="edge">
<title>C&#45;&gt;C</title>
<path fill="none" stroke="#000000" d="M82.5325,-25.752C93.5078,-26.4902 103,-23.9063 103,-18 103,-14.0317 98.7151,-11.5632 92.5743,-10.5944"/>
<polygon fill="#000000" stroke="#000000" points="92.6472,-7.0949 82.5325,-10.248 92.4059,-14.0908 92.6472,-7.0949"/>
<text text-anchor="middle" x="111.9448" y="-13.8" font-family="Times,serif" font-size="14.00" fill="#000000">1/1</text>
</g>
</g>
</svg>
