<?xml version="1.0" encoding="UTF-8" standalone="no"?>
<!DOCTYPE svg PUBLIC "-//W3C//DTD SVG 1.1//EN"
 "http://www.w3.org/Graphics/SVG/1.1/DTD/svg11.dtd">
<!-- Generated by graphviz version 2.40.1 (20161225.0304)
 -->
<!-- Pages: 1 -->
<svg width="196pt" height="238pt"
 viewBox="0.00 0.00 196.35 238.00" xmlns="http://www.w3.org/2000/svg" xmlns:xlink="http://www.w3.org/1999/xlink">
<g id="graph0" class="graph" transform="scale(1 1) rotate(0) translate(4 234)">
<polygon fill="#ffffff" stroke="transparent" points="-4,4 -4,-234 192.3545,-234 192.3545,4 -4,4"/>
<text text-anchor="middle" x="94.1772" y="-6.8" font-family="Times,serif" font-size="14.00" fill="#000000">Mealy Machine to detect `111`</text>
<!-- A -->
<g id="node1" class="node">
<title>A</title>
<ellipse fill="none" stroke="#000000" cx="90.7324" cy="-212" rx="27" ry="18"/>
<text text-anchor="middle" x="90.7324" y="-207.8" font-family="Times,serif" font-size="14.00" fill="#000000">A</text>
</g>
<!-- A&#45;&gt;A -->
<g id="edge1" class="edge">
<title>A&#45;&gt;A</title>
<path fill="none" stroke="#000000" d="M115.2649,-219.752C126.2402,-220.4902 135.7324,-217.9063 135.7324,-212 135.7324,-208.0317 131.4475,-205.5632 125.3067,-204.5944"/>
<polygon fill="#000000" stroke="#000000" points="125.3796,-201.0949 115.2649,-204.248 125.1383,-208.0908 125.3796,-201.0949"/>
<text text-anchor="middle" x="144.6772" y="-207.8" font-family="Times,serif" font-size="14.00" fill="#000000">0/0</text>
</g>
<!-- B -->
<g id="node2" class="node">
<title>B</title>
<ellipse fill="none" stroke="#000000" cx="60.7324" cy="-126" rx="27" ry="18"/>
<text text-anchor="middle" x="60.7324" y="-121.8" font-family="Times,serif" font-size="14.00" fill="#000000">B</text>
</g>
<!-- A&#45;&gt;B -->
<g id="edge2" class="edge">
<title>A&#45;&gt;B</title>
<path fill="none" stroke="#000000" d="M70.6755,-199.3776C62.9621,-193.342 55.0111,-185.3767 50.8428,-176 47.6437,-168.8037 47.8643,-160.5678 49.5135,-152.8849"/>
<polygon fill="#000000" stroke="#000000" points="52.8871,-153.8182 52.3369,-143.2376 46.1689,-151.852 52.8871,-153.8182"/>
<text text-anchor="middle" x="60.6772" y="-164.8" font-family="Times,serif" font-size="14.00" fill="#000000">1/0</text>
</g>
<!-- B&#45;&gt;A -->
<g id="edge3" class="edge">
<title>B&#45;&gt;A</title>
<path fill="none" stroke="#000000" d="M66.9405,-143.7964C71.0416,-155.5531 76.498,-171.1945 81.1508,-184.5326"/>
<polygon fill="#000000" stroke="#000000" points="77.9179,-185.8916 84.5164,-194.1807 84.5273,-183.5859 77.9179,-185.8916"/>
<text text-anchor="middle" x="86.6772" y="-164.8" font-family="Times,serif" font-size="14.00" fill="#000000">0/0</text>
</g>
<!-- C -->
<g id="node3" class="node">
<title>C</title>
<ellipse fill="none" stroke="#000000" cx="91.7324" cy="-40" rx="27" ry="18"/>
<text text-anchor="middle" x="91.7324" y="-35.8" font-family="Times,serif" font-size="14.00" fill="#000000">C</text>
</g>
<!-- B&#45;&gt;C -->
<g id="edge4" class="edge">
<title>B&#45;&gt;C</title>
<path fill="none" stroke="#000000" d="M67.1556,-108.1807C71.4236,-96.3407 77.1091,-80.5679 81.9367,-67.1752"/>
<polygon fill="#000000" stroke="#000000" points="85.325,-68.0966 85.4235,-57.5022 78.7397,-65.7228 85.325,-68.0966"/>
<text text-anchor="middle" x="87.6772" y="-78.8" font-family="Times,serif" font-size="14.00" fill="#000000">1/0</text>
</g>
<!-- C&#45;&gt;A -->
<g id="edge5" class="edge">
<title>C&#45;&gt;A</title>
<path fill="none" stroke="#000000" d="M97.0943,-57.7825C98.5825,-63.5393 99.9925,-69.9896 100.7324,-76 106.1631,-120.1137 105.4194,-131.9187 99.7324,-176 99.3813,-178.7215 98.8979,-181.5339 98.3359,-184.3318"/>
<polygon fill="#000000" stroke="#000000" points="94.8942,-183.6808 96.0524,-194.2122 101.7144,-185.2572 94.8942,-183.6808"/>
<text text-anchor="middle" x="113.6772" y="-121.8" font-family="Times,serif" font-size="14.00" fill="#000000">0/0</text>
</g>
<!-- C&#45;&gt;C -->
<g id="edge6" class="edge">
<title>C&#45;&gt;C</title>
<path fill="none" stroke="#000000" d="M116.2649,-47.752C127.2402,-48.4902 136.7324,-45.9063 136.7324,-40 136.7324,-36.0317 132.4475,-33.5632 126.3067,-32.5944"/>
<polygon fill="#000000" stroke="#000000" points="126.3796,-29.0949 116.2649,-32.248 126.1383,-36.0908 126.3796,-29.0949"/>
<text text-anchor="middle" x="145.6772" y="-35.8" font-family="Times,serif" font-size="14.00" fill="#000000">1/1</text>
</g>
</g>
</svg>
