<?xml version="1.0" encoding="UTF-8" standalone="no"?>
<!DOCTYPE svg PUBLIC "-//W3C//DTD SVG 1.1//EN"
 "http://www.w3.org/Graphics/SVG/1.1/DTD/svg11.dtd">
<!-- Generated by graphviz version 2.40.1 (20161225.0304)
 -->
<!-- Pages: 1 -->
<svg width="198pt" height="324pt"
 viewBox="0.00 0.00 197.91 324.00" xmlns="http://www.w3.org/2000/svg" xmlns:xlink="http://www.w3.org/1999/xlink">
<g id="graph0" class="graph" transform="scale(1 1) rotate(0) translate(4 320)">
<polygon fill="#ffffff" stroke="transparent" points="-4,4 -4,-320 193.9131,-320 193.9131,4 -4,4"/>
<text text-anchor="middle" x="94.9565" y="-6.8" font-family="Times,serif" font-size="14.00" fill="#000000">Moore Machine to detect `111`</text>
<!-- A/0 -->
<g id="node1" class="node">
<title>A/0</title>
<ellipse fill="none" stroke="#000000" cx="95.9565" cy="-298" rx="27" ry="18"/>
<text text-anchor="middle" x="95.9565" y="-293.8" font-family="Times,serif" font-size="14.00" fill="#000000">A/0</text>
</g>
<!-- A/0&#45;&gt;A/0 -->
<g id="edge1" class="edge">
<title>A/0&#45;&gt;A/0</title>
<path fill="none" stroke="#000000" d="M120.489,-305.752C131.4644,-306.4902 140.9565,-303.9063 140.9565,-298 140.9565,-294.0317 136.6716,-291.5632 130.5309,-290.5944"/>
<polygon fill="#000000" stroke="#000000" points="130.6037,-287.0949 120.489,-290.248 130.3624,-294.0908 130.6037,-287.0949"/>
<text text-anchor="middle" x="144.4565" y="-293.8" font-family="Times,serif" font-size="14.00" fill="#000000">0</text>
</g>
<!-- B/0 -->
<g id="node2" class="node">
<title>B/0</title>
<ellipse fill="none" stroke="#000000" cx="46.9565" cy="-212" rx="27" ry="18"/>
<text text-anchor="middle" x="46.9565" y="-207.8" font-family="Times,serif" font-size="14.00" fill="#000000">B/0</text>
</g>
<!-- A/0&#45;&gt;B/0 -->
<g id="edge2" class="edge">
<title>A/0&#45;&gt;B/0</title>
<path fill="none" stroke="#000000" d="M76.6439,-284.9897C69.0443,-278.8885 60.956,-270.9791 55.9565,-262 52.282,-255.4005 50.0588,-247.6208 48.7271,-240.1892"/>
<polygon fill="#000000" stroke="#000000" points="52.1695,-239.5245 47.3797,-230.0743 45.2308,-240.4489 52.1695,-239.5245"/>
<text text-anchor="middle" x="59.4565" y="-250.8" font-family="Times,serif" font-size="14.00" fill="#000000">1</text>
</g>
<!-- B/0&#45;&gt;A/0 -->
<g id="edge3" class="edge">
<title>B/0&#45;&gt;A/0</title>
<path fill="none" stroke="#000000" d="M56.6173,-228.9555C63.6591,-241.3146 73.3249,-258.2791 81.3131,-272.2992"/>
<polygon fill="#000000" stroke="#000000" points="78.2841,-274.0532 86.2757,-281.0092 84.3662,-270.5878 78.2841,-274.0532"/>
<text text-anchor="middle" x="77.4565" y="-250.8" font-family="Times,serif" font-size="14.00" fill="#000000">0</text>
</g>
<!-- C/0 -->
<g id="node3" class="node">
<title>C/0</title>
<ellipse fill="none" stroke="#000000" cx="89.9565" cy="-126" rx="27" ry="18"/>
<text text-anchor="middle" x="89.9565" y="-121.8" font-family="Times,serif" font-size="14.00" fill="#000000">C/0</text>
</g>
<!-- B/0&#45;&gt;C/0 -->
<g id="edge4" class="edge">
<title>B/0&#45;&gt;C/0</title>
<path fill="none" stroke="#000000" d="M55.6582,-194.5966C61.7596,-182.3939 70.023,-165.867 76.91,-152.093"/>
<polygon fill="#000000" stroke="#000000" points="80.0728,-153.5936 81.4145,-143.084 73.8118,-150.463 80.0728,-153.5936"/>
<text text-anchor="middle" x="74.4565" y="-164.8" font-family="Times,serif" font-size="14.00" fill="#000000">1</text>
</g>
<!-- C/0&#45;&gt;A/0 -->
<g id="edge5" class="edge">
<title>C/0&#45;&gt;A/0</title>
<path fill="none" stroke="#000000" d="M90.5879,-144.0977C91.6325,-174.0454 93.7285,-234.1302 94.97,-269.7199"/>
<polygon fill="#000000" stroke="#000000" points="91.4792,-270.0462 95.3258,-279.9181 98.4749,-269.8021 91.4792,-270.0462"/>
<text text-anchor="middle" x="96.4565" y="-207.8" font-family="Times,serif" font-size="14.00" fill="#000000">0</text>
</g>
<!-- D/1 -->
<g id="node4" class="node">
<title>D/1</title>
<ellipse fill="none" stroke="#000000" cx="117.9565" cy="-40" rx="27" ry="18"/>
<text text-anchor="middle" x="117.9565" y="-35.8" font-family="Times,serif" font-size="14.00" fill="#000000">D/1</text>
</g>
<!-- C/0&#45;&gt;D/1 -->
<g id="edge6" class="edge">
<title>C/0&#45;&gt;D/1</title>
<path fill="none" stroke="#000000" d="M95.7582,-108.1807C99.5875,-96.4191 104.6804,-80.7766 109.0221,-67.4416"/>
<polygon fill="#000000" stroke="#000000" points="112.3945,-68.3887 112.1624,-57.7964 105.7384,-66.2216 112.3945,-68.3887"/>
<text text-anchor="middle" x="108.4565" y="-78.8" font-family="Times,serif" font-size="14.00" fill="#000000">1</text>
</g>
<!-- D/1&#45;&gt;A/0 -->
<g id="edge7" class="edge">
<title>D/1&#45;&gt;A/0</title>
<path fill="none" stroke="#000000" d="M120.6752,-58.132C122.5821,-71.8015 124.9618,-91.0308 125.9565,-108 129.9892,-176.7923 124.1066,-195.0088 107.9565,-262 107.2762,-264.822 106.4746,-267.7391 105.6136,-270.6349"/>
<polygon fill="#000000" stroke="#000000" points="102.2577,-269.6385 102.5473,-280.2293 108.9255,-271.7694 102.2577,-269.6385"/>
<text text-anchor="middle" x="129.4565" y="-164.8" font-family="Times,serif" font-size="14.00" fill="#000000">0</text>
</g>
<!-- D/1&#45;&gt;D/1 -->
<g id="edge8" class="edge">
<title>D/1&#45;&gt;D/1</title>
<path fill="none" stroke="#000000" d="M142.489,-47.752C153.4644,-48.4902 162.9565,-45.9063 162.9565,-40 162.9565,-36.0317 158.6716,-33.5632 152.5309,-32.5944"/>
<polygon fill="#000000" stroke="#000000" points="152.6037,-29.0949 142.489,-32.248 152.3624,-36.0908 152.6037,-29.0949"/>
<text text-anchor="middle" x="166.4565" y="-35.8" font-family="Times,serif" font-size="14.00" fill="#000000">1</text>
</g>
</g>
</svg>
