<?xml version="1.0" encoding="UTF-8" standalone="no"?>
<!DOCTYPE svg PUBLIC "-//W3C//DTD SVG 1.1//EN"
 "http://www.w3.org/Graphics/SVG/1.1/DTD/svg11.dtd">
<!-- Generated by graphviz version 2.40.1 (20161225.0304)
 -->
<!-- Title: %3 Pages: 1 -->
<svg width="153pt" height="302pt"
 viewBox="0.00 0.00 153.00 302.00" xmlns="http://www.w3.org/2000/svg" xmlns:xlink="http://www.w3.org/1999/xlink">
<g id="graph0" class="graph" transform="scale(1 1) rotate(0) translate(4 298)">
<title>%3</title>
<polygon fill="#ffffff" stroke="transparent" points="-4,4 -4,-298 149,-298 149,4 -4,4"/>
<!-- A/0 -->
<g id="node1" class="node">
<title>A/0</title>
<ellipse fill="none" stroke="#000000" cx="93" cy="-276" rx="27" ry="18"/>
<text text-anchor="middle" x="93" y="-271.8" font-family="Times,serif" font-size="14.00" fill="#000000">A/0</text>
</g>
<!-- A/0&#45;&gt;A/0 -->
<g id="edge2" class="edge">
<title>A/0&#45;&gt;A/0</title>
<path fill="none" stroke="#000000" d="M117.5325,-283.752C128.5078,-284.4902 138,-281.9063 138,-276 138,-272.0317 133.7151,-269.5632 127.5743,-268.5944"/>
<polygon fill="#000000" stroke="#000000" points="127.6472,-265.0949 117.5325,-268.248 127.4059,-272.0908 127.6472,-265.0949"/>
<text text-anchor="middle" x="141.5" y="-271.8" font-family="Times,serif" font-size="14.00" fill="#000000">1</text>
</g>
<!-- B/0 -->
<g id="node2" class="node">
<title>B/0</title>
<ellipse fill="none" stroke="#000000" cx="27" cy="-190" rx="27" ry="18"/>
<text text-anchor="middle" x="27" y="-185.8" font-family="Times,serif" font-size="14.00" fill="#000000">B/0</text>
</g>
<!-- A/0&#45;&gt;B/0 -->
<g id="edge1" class="edge">
<title>A/0&#45;&gt;B/0</title>
<path fill="none" stroke="#000000" d="M80.5859,-259.8241C70.722,-246.9712 56.7726,-228.7946 45.5789,-214.2089"/>
<polygon fill="#000000" stroke="#000000" points="48.2232,-211.9056 39.3584,-206.1034 42.6701,-216.1674 48.2232,-211.9056"/>
<text text-anchor="middle" x="67.5" y="-228.8" font-family="Times,serif" font-size="14.00" fill="#000000">0</text>
</g>
<!-- B/0&#45;&gt;B/0 -->
<g id="edge3" class="edge">
<title>B/0&#45;&gt;B/0</title>
<path fill="none" stroke="#000000" d="M51.5325,-197.752C62.5078,-198.4902 72,-195.9063 72,-190 72,-186.0317 67.7151,-183.5632 61.5743,-182.5944"/>
<polygon fill="#000000" stroke="#000000" points="61.6472,-179.0949 51.5325,-182.248 61.4059,-186.0908 61.6472,-179.0949"/>
<text text-anchor="middle" x="75.5" y="-185.8" font-family="Times,serif" font-size="14.00" fill="#000000">0</text>
</g>
<!-- C/0 -->
<g id="node3" class="node">
<title>C/0</title>
<ellipse fill="none" stroke="#000000" cx="85" cy="-104" rx="27" ry="18"/>
<text text-anchor="middle" x="85" y="-99.8" font-family="Times,serif" font-size="14.00" fill="#000000">C/0</text>
</g>
<!-- B/0&#45;&gt;C/0 -->
<g id="edge4" class="edge">
<title>B/0&#45;&gt;C/0</title>
<path fill="none" stroke="#000000" d="M38.183,-173.4183C46.6882,-160.8071 58.5318,-143.246 68.1784,-128.9424"/>
<polygon fill="#000000" stroke="#000000" points="71.1616,-130.7785 73.8513,-120.5308 65.3581,-126.8645 71.1616,-130.7785"/>
<text text-anchor="middle" x="63.5" y="-142.8" font-family="Times,serif" font-size="14.00" fill="#000000">1</text>
</g>
<!-- C/0&#45;&gt;A/0 -->
<g id="edge5" class="edge">
<title>C/0&#45;&gt;A/0</title>
<path fill="none" stroke="#000000" d="M85.8418,-122.0977C87.2347,-152.0454 90.0293,-212.1302 91.6846,-247.7199"/>
<polygon fill="#000000" stroke="#000000" points="88.1981,-248.0915 92.159,-257.9181 95.1905,-247.7662 88.1981,-248.0915"/>
<text text-anchor="middle" x="93.5" y="-185.8" font-family="Times,serif" font-size="14.00" fill="#000000">1</text>
</g>
<!-- D/1 -->
<g id="node4" class="node">
<title>D/1</title>
<ellipse fill="none" stroke="#000000" cx="60" cy="-18" rx="27" ry="18"/>
<text text-anchor="middle" x="60" y="-13.8" font-family="Times,serif" font-size="14.00" fill="#000000">D/1</text>
</g>
<!-- C/0&#45;&gt;D/1 -->
<g id="edge6" class="edge">
<title>C/0&#45;&gt;D/1</title>
<path fill="none" stroke="#000000" d="M79.82,-86.1807C76.4009,-74.4191 71.8537,-58.7766 67.9772,-45.4416"/>
<polygon fill="#000000" stroke="#000000" points="71.3258,-44.4219 65.1734,-35.7964 64.604,-46.376 71.3258,-44.4219"/>
<text text-anchor="middle" x="77.5" y="-56.8" font-family="Times,serif" font-size="14.00" fill="#000000">0</text>
</g>
<!-- D/1&#45;&gt;B/0 -->
<g id="edge7" class="edge">
<title>D/1&#45;&gt;B/0</title>
<path fill="none" stroke="#000000" d="M54.6948,-35.7636C50.7675,-49.4069 45.5111,-68.7686 42,-86 36.8204,-111.4203 32.7665,-140.6918 30.1861,-161.6911"/>
<polygon fill="#000000" stroke="#000000" points="26.683,-161.5098 28.9729,-171.8542 33.6336,-162.3396 26.683,-161.5098"/>
<text text-anchor="middle" x="45.5" y="-99.8" font-family="Times,serif" font-size="14.00" fill="#000000">0</text>
</g>
<!-- D/1&#45;&gt;C/0 -->
<g id="edge8" class="edge">
<title>D/1&#45;&gt;C/0</title>
<path fill="none" stroke="#000000" d="M58.993,-36.4366C58.9915,-46.0478 59.8218,-57.8779 63,-68 64.1424,-71.6383 65.73,-75.2856 67.5345,-78.7879"/>
<polygon fill="#000000" stroke="#000000" points="64.6118,-80.7247 72.661,-87.614 70.6649,-77.2088 64.6118,-80.7247"/>
<text text-anchor="middle" x="66.5" y="-56.8" font-family="Times,serif" font-size="14.00" fill="#000000">1</text>
</g>
</g>
</svg>
