<?xml version="1.0" encoding="UTF-8" standalone="no"?>
<!DOCTYPE svg PUBLIC "-//W3C//DTD SVG 1.1//EN"
 "http://www.w3.org/Graphics/SVG/1.1/DTD/svg11.dtd">
<!-- Generated by graphviz version 2.40.1 (20161225.0304)
 -->
<!-- Pages: 1 -->
<svg width="199pt" height="324pt"
 viewBox="0.00 0.00 198.94 324.00" xmlns="http://www.w3.org/2000/svg" xmlns:xlink="http://www.w3.org/1999/xlink">
<g id="graph0" class="graph" transform="scale(1 1) rotate(0) translate(4 320)">
<polygon fill="#ffffff" stroke="transparent" points="-4,4 -4,-320 194.9385,-320 194.9385,4 -4,4"/>
<text text-anchor="middle" x="95.4692" y="-6.8" font-family="Times,serif" font-size="14.00" fill="#000000">Moore Machine to detect `101`</text>
<!-- A/0 -->
<g id="node1" class="node">
<title>A/0</title>
<ellipse fill="none" stroke="#000000" cx="115.9692" cy="-298" rx="27" ry="18"/>
<text text-anchor="middle" x="115.9692" y="-293.8" font-family="Times,serif" font-size="14.00" fill="#000000">A/0</text>
</g>
<!-- A/0&#45;&gt;A/0 -->
<g id="edge1" class="edge">
<title>A/0&#45;&gt;A/0</title>
<path fill="none" stroke="#000000" d="M140.5017,-305.752C151.4771,-306.4902 160.9692,-303.9063 160.9692,-298 160.9692,-294.0317 156.6843,-291.5632 150.5436,-290.5944"/>
<polygon fill="#000000" stroke="#000000" points="150.6164,-287.0949 140.5017,-290.248 150.3751,-294.0908 150.6164,-287.0949"/>
<text text-anchor="middle" x="164.4692" y="-293.8" font-family="Times,serif" font-size="14.00" fill="#000000">0</text>
</g>
<!-- B/0 -->
<g id="node2" class="node">
<title>B/0</title>
<ellipse fill="none" stroke="#000000" cx="49.9692" cy="-212" rx="27" ry="18"/>
<text text-anchor="middle" x="49.9692" y="-207.8" font-family="Times,serif" font-size="14.00" fill="#000000">B/0</text>
</g>
<!-- A/0&#45;&gt;B/0 -->
<g id="edge2" class="edge">
<title>A/0&#45;&gt;B/0</title>
<path fill="none" stroke="#000000" d="M103.5551,-281.8241C93.6913,-268.9712 79.7418,-250.7946 68.5482,-236.2089"/>
<polygon fill="#000000" stroke="#000000" points="71.1925,-233.9056 62.3277,-228.1034 65.6393,-238.1674 71.1925,-233.9056"/>
<text text-anchor="middle" x="90.4692" y="-250.8" font-family="Times,serif" font-size="14.00" fill="#000000">1</text>
</g>
<!-- B/0&#45;&gt;B/0 -->
<g id="edge3" class="edge">
<title>B/0&#45;&gt;B/0</title>
<path fill="none" stroke="#000000" d="M74.5017,-219.752C85.4771,-220.4902 94.9692,-217.9063 94.9692,-212 94.9692,-208.0317 90.6843,-205.5632 84.5436,-204.5944"/>
<polygon fill="#000000" stroke="#000000" points="84.6164,-201.0949 74.5017,-204.248 84.3751,-208.0908 84.6164,-201.0949"/>
<text text-anchor="middle" x="98.4692" y="-207.8" font-family="Times,serif" font-size="14.00" fill="#000000">1</text>
</g>
<!-- C/0 -->
<g id="node3" class="node">
<title>C/0</title>
<ellipse fill="none" stroke="#000000" cx="107.9692" cy="-126" rx="27" ry="18"/>
<text text-anchor="middle" x="107.9692" y="-121.8" font-family="Times,serif" font-size="14.00" fill="#000000">C/0</text>
</g>
<!-- B/0&#45;&gt;C/0 -->
<g id="edge4" class="edge">
<title>B/0&#45;&gt;C/0</title>
<path fill="none" stroke="#000000" d="M61.1522,-195.4183C69.6575,-182.8071 81.501,-165.246 91.1476,-150.9424"/>
<polygon fill="#000000" stroke="#000000" points="94.1309,-152.7785 96.8206,-142.5308 88.3274,-148.8645 94.1309,-152.7785"/>
<text text-anchor="middle" x="86.4692" y="-164.8" font-family="Times,serif" font-size="14.00" fill="#000000">0</text>
</g>
<!-- C/0&#45;&gt;A/0 -->
<g id="edge5" class="edge">
<title>C/0&#45;&gt;A/0</title>
<path fill="none" stroke="#000000" d="M108.811,-144.0977C110.2039,-174.0454 112.9986,-234.1302 114.6539,-269.7199"/>
<polygon fill="#000000" stroke="#000000" points="111.1673,-270.0915 115.1282,-279.9181 118.1597,-269.7662 111.1673,-270.0915"/>
<text text-anchor="middle" x="116.4692" y="-207.8" font-family="Times,serif" font-size="14.00" fill="#000000">0</text>
</g>
<!-- D/1 -->
<g id="node4" class="node">
<title>D/1</title>
<ellipse fill="none" stroke="#000000" cx="82.9692" cy="-40" rx="27" ry="18"/>
<text text-anchor="middle" x="82.9692" y="-35.8" font-family="Times,serif" font-size="14.00" fill="#000000">D/1</text>
</g>
<!-- C/0&#45;&gt;D/1 -->
<g id="edge6" class="edge">
<title>C/0&#45;&gt;D/1</title>
<path fill="none" stroke="#000000" d="M102.7892,-108.1807C99.3701,-96.4191 94.8229,-80.7766 90.9464,-67.4416"/>
<polygon fill="#000000" stroke="#000000" points="94.295,-66.4219 88.1426,-57.7964 87.5732,-68.376 94.295,-66.4219"/>
<text text-anchor="middle" x="100.4692" y="-78.8" font-family="Times,serif" font-size="14.00" fill="#000000">1</text>
</g>
<!-- D/1&#45;&gt;B/0 -->
<g id="edge7" class="edge">
<title>D/1&#45;&gt;B/0</title>
<path fill="none" stroke="#000000" d="M77.6641,-57.7636C73.7367,-71.4069 68.4803,-90.7686 64.9692,-108 59.7896,-133.4203 55.7358,-162.6918 53.1554,-183.6911"/>
<polygon fill="#000000" stroke="#000000" points="49.6522,-183.5098 51.9421,-193.8542 56.6029,-184.3396 49.6522,-183.5098"/>
<text text-anchor="middle" x="68.4692" y="-121.8" font-family="Times,serif" font-size="14.00" fill="#000000">1</text>
</g>
<!-- D/1&#45;&gt;C/0 -->
<g id="edge8" class="edge">
<title>D/1&#45;&gt;C/0</title>
<path fill="none" stroke="#000000" d="M81.9623,-58.4366C81.9607,-68.0478 82.791,-79.8779 85.9692,-90 87.1116,-93.6383 88.6992,-97.2856 90.5038,-100.7879"/>
<polygon fill="#000000" stroke="#000000" points="87.5811,-102.7247 95.6302,-109.614 93.6341,-99.2088 87.5811,-102.7247"/>
<text text-anchor="middle" x="89.4692" y="-78.8" font-family="Times,serif" font-size="14.00" fill="#000000">0</text>
</g>
</g>
</svg>
