<?xml version="1.0" encoding="UTF-8" standalone="no"?>
<!DOCTYPE svg PUBLIC "-//W3C//DTD SVG 1.1//EN"
 "http://www.w3.org/Graphics/SVG/1.1/DTD/svg11.dtd">
<!-- Generated by graphviz version 2.40.1 (20161225.0304)
 -->
<!-- Title: %3 Pages: 1 -->
<svg width="148pt" height="302pt"
 viewBox="0.00 0.00 148.00 302.00" xmlns="http://www.w3.org/2000/svg" xmlns:xlink="http://www.w3.org/1999/xlink">
<g id="graph0" class="graph" transform="scale(1 1) rotate(0) translate(4 298)">
<title>%3</title>
<polygon fill="#ffffff" stroke="transparent" points="-4,4 -4,-298 144,-298 144,4 -4,4"/>
<!-- A/0 -->
<g id="node1" class="node">
<title>A/0</title>
<ellipse fill="none" stroke="#000000" cx="88" cy="-276" rx="27" ry="18"/>
<text text-anchor="middle" x="88" y="-271.8" font-family="Times,serif" font-size="14.00" fill="#000000">A/0</text>
</g>
<!-- A/0&#45;&gt;A/0 -->
<g id="edge1" class="edge">
<title>A/0&#45;&gt;A/0</title>
<path fill="none" stroke="#000000" d="M112.5325,-283.752C123.5078,-284.4902 133,-281.9063 133,-276 133,-272.0317 128.7151,-269.5632 122.5743,-268.5944"/>
<polygon fill="#000000" stroke="#000000" points="122.6472,-265.0949 112.5325,-268.248 122.4059,-272.0908 122.6472,-265.0949"/>
<text text-anchor="middle" x="136.5" y="-271.8" font-family="Times,serif" font-size="14.00" fill="#000000">1</text>
</g>
<!-- B/0 -->
<g id="node2" class="node">
<title>B/0</title>
<ellipse fill="none" stroke="#000000" cx="48" cy="-190" rx="27" ry="18"/>
<text text-anchor="middle" x="48" y="-185.8" font-family="Times,serif" font-size="14.00" fill="#000000">B/0</text>
</g>
<!-- A/0&#45;&gt;B/0 -->
<g id="edge2" class="edge">
<title>A/0&#45;&gt;B/0</title>
<path fill="none" stroke="#000000" d="M79.9054,-258.5966C74.321,-246.5902 66.7896,-230.3977 60.4465,-216.76"/>
<polygon fill="#000000" stroke="#000000" points="63.4734,-214.9686 56.0826,-207.3775 57.1264,-217.9208 63.4734,-214.9686"/>
<text text-anchor="middle" x="73.5" y="-228.8" font-family="Times,serif" font-size="14.00" fill="#000000">0</text>
</g>
<!-- B/0&#45;&gt;B/0 -->
<g id="edge3" class="edge">
<title>B/0&#45;&gt;B/0</title>
<path fill="none" stroke="#000000" d="M72.5325,-197.752C83.5078,-198.4902 93,-195.9063 93,-190 93,-186.0317 88.7151,-183.5632 82.5743,-182.5944"/>
<polygon fill="#000000" stroke="#000000" points="82.6472,-179.0949 72.5325,-182.248 82.4059,-186.0908 82.6472,-179.0949"/>
<text text-anchor="middle" x="96.5" y="-185.8" font-family="Times,serif" font-size="14.00" fill="#000000">0</text>
</g>
<!-- C/0 -->
<g id="node3" class="node">
<title>C/0</title>
<ellipse fill="none" stroke="#000000" cx="27" cy="-104" rx="27" ry="18"/>
<text text-anchor="middle" x="27" y="-99.8" font-family="Times,serif" font-size="14.00" fill="#000000">C/0</text>
</g>
<!-- B/0&#45;&gt;C/0 -->
<g id="edge4" class="edge">
<title>B/0&#45;&gt;C/0</title>
<path fill="none" stroke="#000000" d="M34.5502,-174.1969C30.315,-168.2551 26.1767,-161.1893 24,-154 21.9005,-147.0659 21.4853,-139.3495 21.8804,-132.0944"/>
<polygon fill="#000000" stroke="#000000" points="25.3832,-132.2484 22.9373,-121.9397 18.4208,-131.5236 25.3832,-132.2484"/>
<text text-anchor="middle" x="27.5" y="-142.8" font-family="Times,serif" font-size="14.00" fill="#000000">1</text>
</g>
<!-- C/0&#45;&gt;B/0 -->
<g id="edge6" class="edge">
<title>C/0&#45;&gt;B/0</title>
<path fill="none" stroke="#000000" d="M31.3456,-121.7964C34.1883,-133.4378 37.9611,-148.8882 41.1969,-162.1396"/>
<polygon fill="#000000" stroke="#000000" points="37.8765,-163.2965 43.6488,-172.1807 44.6767,-161.6359 37.8765,-163.2965"/>
<text text-anchor="middle" x="41.5" y="-142.8" font-family="Times,serif" font-size="14.00" fill="#000000">0</text>
</g>
<!-- D/1 -->
<g id="node4" class="node">
<title>D/1</title>
<ellipse fill="none" stroke="#000000" cx="90" cy="-18" rx="27" ry="18"/>
<text text-anchor="middle" x="90" y="-13.8" font-family="Times,serif" font-size="14.00" fill="#000000">D/1</text>
</g>
<!-- C/0&#45;&gt;D/1 -->
<g id="edge5" class="edge">
<title>C/0&#45;&gt;D/1</title>
<path fill="none" stroke="#000000" d="M38.8498,-87.8241C48.2057,-75.0525 61.4123,-57.0245 72.0624,-42.4863"/>
<polygon fill="#000000" stroke="#000000" points="74.903,-44.5312 77.9891,-34.3958 69.256,-40.3945 74.903,-44.5312"/>
<text text-anchor="middle" x="65.5" y="-56.8" font-family="Times,serif" font-size="14.00" fill="#000000">1</text>
</g>
<!-- D/1&#45;&gt;A/0 -->
<g id="edge7" class="edge">
<title>D/1&#45;&gt;A/0</title>
<path fill="none" stroke="#000000" d="M94.7494,-35.8869C103.0609,-69.6566 118.4969,-145.0633 109,-208 106.926,-221.7446 102.6194,-236.541 98.4429,-248.8106"/>
<polygon fill="#000000" stroke="#000000" points="95.07,-247.8493 95.0171,-258.444 101.6654,-250.1948 95.07,-247.8493"/>
<text text-anchor="middle" x="114.5" y="-142.8" font-family="Times,serif" font-size="14.00" fill="#000000">1</text>
</g>
<!-- D/1&#45;&gt;B/0 -->
<g id="edge8" class="edge">
<title>D/1&#45;&gt;B/0</title>
<path fill="none" stroke="#000000" d="M85.6438,-35.8397C78.3231,-65.8196 63.502,-126.5156 54.8003,-162.1513"/>
<polygon fill="#000000" stroke="#000000" points="51.3875,-161.3732 52.4154,-171.9181 58.1877,-163.0338 51.3875,-161.3732"/>
<text text-anchor="middle" x="76.5" y="-99.8" font-family="Times,serif" font-size="14.00" fill="#000000">0</text>
</g>
</g>
</svg>
