<?xml version="1.0" encoding="UTF-8" standalone="no"?>
<!DOCTYPE svg PUBLIC "-//W3C//DTD SVG 1.1//EN"
 "http://www.w3.org/Graphics/SVG/1.1/DTD/svg11.dtd">
<!-- Generated by graphviz version 2.40.1 (20161225.0304)
 -->
<!-- Pages: 1 -->
<svg width="182pt" height="324pt"
 viewBox="0.00 0.00 181.96 324.00" xmlns="http://www.w3.org/2000/svg" xmlns:xlink="http://www.w3.org/1999/xlink">
<g id="graph0" class="graph" transform="scale(1 1) rotate(0) translate(4 320)">
<polygon fill="#ffffff" stroke="transparent" points="-4,4 -4,-320 177.958,-320 177.958,4 -4,4"/>
<text text-anchor="middle" x="86.979" y="-6.8" font-family="Times,serif" font-size="14.00" fill="#000000">Sequence Detector for `111`</text>
<!-- A/0 -->
<g id="node1" class="node">
<title>A/0</title>
<ellipse fill="none" stroke="#000000" cx="87.979" cy="-298" rx="27" ry="18"/>
<text text-anchor="middle" x="87.979" y="-293.8" font-family="Times,serif" font-size="14.00" fill="#000000">A/0</text>
</g>
<!-- A/0&#45;&gt;A/0 -->
<g id="edge1" class="edge">
<title>A/0&#45;&gt;A/0</title>
<path fill="none" stroke="#000000" d="M112.5115,-305.752C123.4868,-306.4902 132.979,-303.9063 132.979,-298 132.979,-294.0317 128.6941,-291.5632 122.5533,-290.5944"/>
<polygon fill="#000000" stroke="#000000" points="122.6262,-287.0949 112.5115,-290.248 122.3849,-294.0908 122.6262,-287.0949"/>
<text text-anchor="middle" x="136.479" y="-293.8" font-family="Times,serif" font-size="14.00" fill="#000000">0</text>
</g>
<!-- B/0 -->
<g id="node2" class="node">
<title>B/0</title>
<ellipse fill="none" stroke="#000000" cx="38.979" cy="-212" rx="27" ry="18"/>
<text text-anchor="middle" x="38.979" y="-207.8" font-family="Times,serif" font-size="14.00" fill="#000000">B/0</text>
</g>
<!-- A/0&#45;&gt;B/0 -->
<g id="edge2" class="edge">
<title>A/0&#45;&gt;B/0</title>
<path fill="none" stroke="#000000" d="M68.6663,-284.9897C61.0667,-278.8885 52.9784,-270.9791 47.979,-262 44.3045,-255.4005 42.0812,-247.6208 40.7495,-240.1892"/>
<polygon fill="#000000" stroke="#000000" points="44.192,-239.5245 39.4021,-230.0743 37.2533,-240.4489 44.192,-239.5245"/>
<text text-anchor="middle" x="51.479" y="-250.8" font-family="Times,serif" font-size="14.00" fill="#000000">1</text>
</g>
<!-- B/0&#45;&gt;A/0 -->
<g id="edge3" class="edge">
<title>B/0&#45;&gt;A/0</title>
<path fill="none" stroke="#000000" d="M48.6397,-228.9555C55.6815,-241.3146 65.3473,-258.2791 73.3355,-272.2992"/>
<polygon fill="#000000" stroke="#000000" points="70.3066,-274.0532 78.2982,-281.0092 76.3887,-270.5878 70.3066,-274.0532"/>
<text text-anchor="middle" x="69.479" y="-250.8" font-family="Times,serif" font-size="14.00" fill="#000000">0</text>
</g>
<!-- C/0 -->
<g id="node3" class="node">
<title>C/0</title>
<ellipse fill="none" stroke="#000000" cx="81.979" cy="-126" rx="27" ry="18"/>
<text text-anchor="middle" x="81.979" y="-121.8" font-family="Times,serif" font-size="14.00" fill="#000000">C/0</text>
</g>
<!-- B/0&#45;&gt;C/0 -->
<g id="edge4" class="edge">
<title>B/0&#45;&gt;C/0</title>
<path fill="none" stroke="#000000" d="M47.6807,-194.5966C53.7821,-182.3939 62.0455,-165.867 68.9325,-152.093"/>
<polygon fill="#000000" stroke="#000000" points="72.0953,-153.5936 73.437,-143.084 65.8343,-150.463 72.0953,-153.5936"/>
<text text-anchor="middle" x="66.479" y="-164.8" font-family="Times,serif" font-size="14.00" fill="#000000">1</text>
</g>
<!-- C/0&#45;&gt;A/0 -->
<g id="edge5" class="edge">
<title>C/0&#45;&gt;A/0</title>
<path fill="none" stroke="#000000" d="M82.6103,-144.0977C83.655,-174.0454 85.751,-234.1302 86.9925,-269.7199"/>
<polygon fill="#000000" stroke="#000000" points="83.5016,-270.0462 87.3482,-279.9181 90.4974,-269.8021 83.5016,-270.0462"/>
<text text-anchor="middle" x="88.479" y="-207.8" font-family="Times,serif" font-size="14.00" fill="#000000">0</text>
</g>
<!-- D/1 -->
<g id="node4" class="node">
<title>D/1</title>
<ellipse fill="none" stroke="#000000" cx="109.979" cy="-40" rx="27" ry="18"/>
<text text-anchor="middle" x="109.979" y="-35.8" font-family="Times,serif" font-size="14.00" fill="#000000">D/1</text>
</g>
<!-- C/0&#45;&gt;D/1 -->
<g id="edge6" class="edge">
<title>C/0&#45;&gt;D/1</title>
<path fill="none" stroke="#000000" d="M87.7806,-108.1807C91.61,-96.4191 96.7029,-80.7766 101.0445,-67.4416"/>
<polygon fill="#000000" stroke="#000000" points="104.4169,-68.3887 104.1848,-57.7964 97.7608,-66.2216 104.4169,-68.3887"/>
<text text-anchor="middle" x="100.479" y="-78.8" font-family="Times,serif" font-size="14.00" fill="#000000">1</text>
</g>
<!-- D/1&#45;&gt;A/0 -->
<g id="edge7" class="edge">
<title>D/1&#45;&gt;A/0</title>
<path fill="none" stroke="#000000" d="M112.6976,-58.132C114.6046,-71.8015 116.9842,-91.0308 117.979,-108 122.0117,-176.7923 116.129,-195.0088 99.979,-262 99.2987,-264.822 98.497,-267.7391 97.636,-270.6349"/>
<polygon fill="#000000" stroke="#000000" points="94.2801,-269.6385 94.5698,-280.2293 100.9479,-271.7694 94.2801,-269.6385"/>
<text text-anchor="middle" x="121.479" y="-164.8" font-family="Times,serif" font-size="14.00" fill="#000000">0</text>
</g>
<!-- D/1&#45;&gt;D/1 -->
<g id="edge8" class="edge">
<title>D/1&#45;&gt;D/1</title>
<path fill="none" stroke="#000000" d="M134.5115,-47.752C145.4868,-48.4902 154.979,-45.9063 154.979,-40 154.979,-36.0317 150.6941,-33.5632 144.5533,-32.5944"/>
<polygon fill="#000000" stroke="#000000" points="144.6262,-29.0949 134.5115,-32.248 144.3849,-36.0908 144.6262,-29.0949"/>
<text text-anchor="middle" x="158.479" y="-35.8" font-family="Times,serif" font-size="14.00" fill="#000000">1</text>
</g>
</g>
</svg>
