<?xml version="1.0" encoding="UTF-8" standalone="no"?>
<!DOCTYPE svg PUBLIC "-//W3C//DTD SVG 1.1//EN"
 "http://www.w3.org/Graphics/SVG/1.1/DTD/svg11.dtd">
<!-- Generated by graphviz version 2.40.1 (20161225.0304)
 -->
<!-- Pages: 1 -->
<svg width="183pt" height="324pt"
 viewBox="0.00 0.00 182.98 324.00" xmlns="http://www.w3.org/2000/svg" xmlns:xlink="http://www.w3.org/1999/xlink">
<g id="graph0" class="graph" transform="scale(1 1) rotate(0) translate(4 320)">
<polygon fill="#ffffff" stroke="transparent" points="-4,4 -4,-320 178.9834,-320 178.9834,4 -4,4"/>
<text text-anchor="middle" x="87.4917" y="-6.8" font-family="Times,serif" font-size="14.00" fill="#000000">Sequence Detector for `010`</text>
<!-- A/0 -->
<g id="node1" class="node">
<title>A/0</title>
<ellipse fill="none" stroke="#000000" cx="107.9917" cy="-298" rx="27" ry="18"/>
<text text-anchor="middle" x="107.9917" y="-293.8" font-family="Times,serif" font-size="14.00" fill="#000000">A/0</text>
</g>
<!-- A/0&#45;&gt;A/0 -->
<g id="edge1" class="edge">
<title>A/0&#45;&gt;A/0</title>
<path fill="none" stroke="#000000" d="M132.5242,-305.752C143.4995,-306.4902 152.9917,-303.9063 152.9917,-298 152.9917,-294.0317 148.7068,-291.5632 142.566,-290.5944"/>
<polygon fill="#000000" stroke="#000000" points="142.6389,-287.0949 132.5242,-290.248 142.3976,-294.0908 142.6389,-287.0949"/>
<text text-anchor="middle" x="156.4917" y="-293.8" font-family="Times,serif" font-size="14.00" fill="#000000">1</text>
</g>
<!-- B/0 -->
<g id="node2" class="node">
<title>B/0</title>
<ellipse fill="none" stroke="#000000" cx="41.9917" cy="-212" rx="27" ry="18"/>
<text text-anchor="middle" x="41.9917" y="-207.8" font-family="Times,serif" font-size="14.00" fill="#000000">B/0</text>
</g>
<!-- A/0&#45;&gt;B/0 -->
<g id="edge2" class="edge">
<title>A/0&#45;&gt;B/0</title>
<path fill="none" stroke="#000000" d="M95.5776,-281.8241C85.7137,-268.9712 71.7643,-250.7946 60.5706,-236.2089"/>
<polygon fill="#000000" stroke="#000000" points="63.2149,-233.9056 54.3501,-228.1034 57.6618,-238.1674 63.2149,-233.9056"/>
<text text-anchor="middle" x="82.4917" y="-250.8" font-family="Times,serif" font-size="14.00" fill="#000000">0</text>
</g>
<!-- B/0&#45;&gt;B/0 -->
<g id="edge3" class="edge">
<title>B/0&#45;&gt;B/0</title>
<path fill="none" stroke="#000000" d="M66.5242,-219.752C77.4995,-220.4902 86.9917,-217.9063 86.9917,-212 86.9917,-208.0317 82.7068,-205.5632 76.566,-204.5944"/>
<polygon fill="#000000" stroke="#000000" points="76.6389,-201.0949 66.5242,-204.248 76.3976,-208.0908 76.6389,-201.0949"/>
<text text-anchor="middle" x="90.4917" y="-207.8" font-family="Times,serif" font-size="14.00" fill="#000000">0</text>
</g>
<!-- C/0 -->
<g id="node3" class="node">
<title>C/0</title>
<ellipse fill="none" stroke="#000000" cx="99.9917" cy="-126" rx="27" ry="18"/>
<text text-anchor="middle" x="99.9917" y="-121.8" font-family="Times,serif" font-size="14.00" fill="#000000">C/0</text>
</g>
<!-- B/0&#45;&gt;C/0 -->
<g id="edge4" class="edge">
<title>B/0&#45;&gt;C/0</title>
<path fill="none" stroke="#000000" d="M53.1747,-195.4183C61.6799,-182.8071 73.5235,-165.246 83.1701,-150.9424"/>
<polygon fill="#000000" stroke="#000000" points="86.1533,-152.7785 88.843,-142.5308 80.3498,-148.8645 86.1533,-152.7785"/>
<text text-anchor="middle" x="78.4917" y="-164.8" font-family="Times,serif" font-size="14.00" fill="#000000">1</text>
</g>
<!-- C/0&#45;&gt;A/0 -->
<g id="edge5" class="edge">
<title>C/0&#45;&gt;A/0</title>
<path fill="none" stroke="#000000" d="M100.8335,-144.0977C102.2264,-174.0454 105.021,-234.1302 106.6763,-269.7199"/>
<polygon fill="#000000" stroke="#000000" points="103.1898,-270.0915 107.1507,-279.9181 110.1822,-269.7662 103.1898,-270.0915"/>
<text text-anchor="middle" x="108.4917" y="-207.8" font-family="Times,serif" font-size="14.00" fill="#000000">1</text>
</g>
<!-- D/1 -->
<g id="node4" class="node">
<title>D/1</title>
<ellipse fill="none" stroke="#000000" cx="74.9917" cy="-40" rx="27" ry="18"/>
<text text-anchor="middle" x="74.9917" y="-35.8" font-family="Times,serif" font-size="14.00" fill="#000000">D/1</text>
</g>
<!-- C/0&#45;&gt;D/1 -->
<g id="edge6" class="edge">
<title>C/0&#45;&gt;D/1</title>
<path fill="none" stroke="#000000" d="M94.8117,-108.1807C91.3926,-96.4191 86.8454,-80.7766 82.9689,-67.4416"/>
<polygon fill="#000000" stroke="#000000" points="86.3175,-66.4219 80.1651,-57.7964 79.5957,-68.376 86.3175,-66.4219"/>
<text text-anchor="middle" x="92.4917" y="-78.8" font-family="Times,serif" font-size="14.00" fill="#000000">0</text>
</g>
<!-- D/1&#45;&gt;B/0 -->
<g id="edge7" class="edge">
<title>D/1&#45;&gt;B/0</title>
<path fill="none" stroke="#000000" d="M69.6865,-57.7636C65.7592,-71.4069 60.5028,-90.7686 56.9917,-108 51.8121,-133.4203 47.7582,-162.6918 45.1778,-183.6911"/>
<polygon fill="#000000" stroke="#000000" points="41.6747,-183.5098 43.9646,-193.8542 48.6253,-184.3396 41.6747,-183.5098"/>
<text text-anchor="middle" x="60.4917" y="-121.8" font-family="Times,serif" font-size="14.00" fill="#000000">0</text>
</g>
<!-- D/1&#45;&gt;C/0 -->
<g id="edge8" class="edge">
<title>D/1&#45;&gt;C/0</title>
<path fill="none" stroke="#000000" d="M73.9847,-58.4366C73.9832,-68.0478 74.8135,-79.8779 77.9917,-90 79.1341,-93.6383 80.7217,-97.2856 82.5262,-100.7879"/>
<polygon fill="#000000" stroke="#000000" points="79.6035,-102.7247 87.6526,-109.614 85.6566,-99.2088 79.6035,-102.7247"/>
<text text-anchor="middle" x="81.4917" y="-78.8" font-family="Times,serif" font-size="14.00" fill="#000000">1</text>
</g>
</g>
</svg>
