<?xml version="1.0" encoding="UTF-8" standalone="no"?>
<!DOCTYPE svg PUBLIC "-//W3C//DTD SVG 1.1//EN"
 "http://www.w3.org/Graphics/SVG/1.1/DTD/svg11.dtd">
<!-- Generated by graphviz version 2.40.1 (20161225.0304)
 -->
<!-- Pages: 1 -->
<svg width="182pt" height="324pt"
 viewBox="0.00 0.00 182.47 324.00" xmlns="http://www.w3.org/2000/svg" xmlns:xlink="http://www.w3.org/1999/xlink">
<g id="graph0" class="graph" transform="scale(1 1) rotate(0) translate(4 320)">
<polygon fill="#ffffff" stroke="transparent" points="-4,4 -4,-320 178.4707,-320 178.4707,4 -4,4"/>
<text text-anchor="middle" x="87.2354" y="-6.8" font-family="Times,serif" font-size="14.00" fill="#000000">Sequence Detector for `011`</text>
<!-- A/0 -->
<g id="node1" class="node">
<title>A/0</title>
<ellipse fill="none" stroke="#000000" cx="105.2354" cy="-298" rx="27" ry="18"/>
<text text-anchor="middle" x="105.2354" y="-293.8" font-family="Times,serif" font-size="14.00" fill="#000000">A/0</text>
</g>
<!-- A/0&#45;&gt;A/0 -->
<g id="edge1" class="edge">
<title>A/0&#45;&gt;A/0</title>
<path fill="none" stroke="#000000" d="M129.7678,-305.752C140.7432,-306.4902 150.2354,-303.9063 150.2354,-298 150.2354,-294.0317 145.9504,-291.5632 139.8097,-290.5944"/>
<polygon fill="#000000" stroke="#000000" points="139.8826,-287.0949 129.7678,-290.248 139.6412,-294.0908 139.8826,-287.0949"/>
<text text-anchor="middle" x="153.7354" y="-293.8" font-family="Times,serif" font-size="14.00" fill="#000000">1</text>
</g>
<!-- B/0 -->
<g id="node2" class="node">
<title>B/0</title>
<ellipse fill="none" stroke="#000000" cx="65.2354" cy="-212" rx="27" ry="18"/>
<text text-anchor="middle" x="65.2354" y="-207.8" font-family="Times,serif" font-size="14.00" fill="#000000">B/0</text>
</g>
<!-- A/0&#45;&gt;B/0 -->
<g id="edge2" class="edge">
<title>A/0&#45;&gt;B/0</title>
<path fill="none" stroke="#000000" d="M97.1408,-280.5966C91.5564,-268.5902 84.025,-252.3977 77.6818,-238.76"/>
<polygon fill="#000000" stroke="#000000" points="80.7088,-236.9686 73.3179,-229.3775 74.3617,-239.9208 80.7088,-236.9686"/>
<text text-anchor="middle" x="90.7354" y="-250.8" font-family="Times,serif" font-size="14.00" fill="#000000">0</text>
</g>
<!-- B/0&#45;&gt;B/0 -->
<g id="edge3" class="edge">
<title>B/0&#45;&gt;B/0</title>
<path fill="none" stroke="#000000" d="M89.7678,-219.752C100.7432,-220.4902 110.2354,-217.9063 110.2354,-212 110.2354,-208.0317 105.9504,-205.5632 99.8097,-204.5944"/>
<polygon fill="#000000" stroke="#000000" points="99.8826,-201.0949 89.7678,-204.248 99.6412,-208.0908 99.8826,-201.0949"/>
<text text-anchor="middle" x="113.7354" y="-207.8" font-family="Times,serif" font-size="14.00" fill="#000000">0</text>
</g>
<!-- C/0 -->
<g id="node3" class="node">
<title>C/0</title>
<ellipse fill="none" stroke="#000000" cx="44.2354" cy="-126" rx="27" ry="18"/>
<text text-anchor="middle" x="44.2354" y="-121.8" font-family="Times,serif" font-size="14.00" fill="#000000">C/0</text>
</g>
<!-- B/0&#45;&gt;C/0 -->
<g id="edge4" class="edge">
<title>B/0&#45;&gt;C/0</title>
<path fill="none" stroke="#000000" d="M51.7856,-196.1969C47.5504,-190.2551 43.4121,-183.1893 41.2354,-176 39.1359,-169.0659 38.7206,-161.3495 39.1157,-154.0944"/>
<polygon fill="#000000" stroke="#000000" points="42.6185,-154.2484 40.1727,-143.9397 35.6562,-153.5236 42.6185,-154.2484"/>
<text text-anchor="middle" x="44.7354" y="-164.8" font-family="Times,serif" font-size="14.00" fill="#000000">1</text>
</g>
<!-- C/0&#45;&gt;B/0 -->
<g id="edge5" class="edge">
<title>C/0&#45;&gt;B/0</title>
<path fill="none" stroke="#000000" d="M48.581,-143.7964C51.4237,-155.4378 55.1964,-170.8882 58.4322,-184.1396"/>
<polygon fill="#000000" stroke="#000000" points="55.1118,-185.2965 60.8841,-194.1807 61.912,-183.6359 55.1118,-185.2965"/>
<text text-anchor="middle" x="58.7354" y="-164.8" font-family="Times,serif" font-size="14.00" fill="#000000">0</text>
</g>
<!-- D/1 -->
<g id="node4" class="node">
<title>D/1</title>
<ellipse fill="none" stroke="#000000" cx="107.2354" cy="-40" rx="27" ry="18"/>
<text text-anchor="middle" x="107.2354" y="-35.8" font-family="Times,serif" font-size="14.00" fill="#000000">D/1</text>
</g>
<!-- C/0&#45;&gt;D/1 -->
<g id="edge6" class="edge">
<title>C/0&#45;&gt;D/1</title>
<path fill="none" stroke="#000000" d="M56.0852,-109.8241C65.4411,-97.0525 78.6477,-79.0245 89.2977,-64.4863"/>
<polygon fill="#000000" stroke="#000000" points="92.1383,-66.5312 95.2245,-56.3958 86.4914,-62.3945 92.1383,-66.5312"/>
<text text-anchor="middle" x="82.7354" y="-78.8" font-family="Times,serif" font-size="14.00" fill="#000000">1</text>
</g>
<!-- D/1&#45;&gt;A/0 -->
<g id="edge7" class="edge">
<title>D/1&#45;&gt;A/0</title>
<path fill="none" stroke="#000000" d="M111.9848,-57.8869C120.2963,-91.6566 135.7322,-167.0633 126.2354,-230 124.1614,-243.7446 119.8547,-258.541 115.6782,-270.8106"/>
<polygon fill="#000000" stroke="#000000" points="112.3054,-269.8493 112.2525,-280.444 118.9008,-272.1948 112.3054,-269.8493"/>
<text text-anchor="middle" x="131.7354" y="-164.8" font-family="Times,serif" font-size="14.00" fill="#000000">1</text>
</g>
<!-- D/1&#45;&gt;B/0 -->
<g id="edge8" class="edge">
<title>D/1&#45;&gt;B/0</title>
<path fill="none" stroke="#000000" d="M102.8792,-57.8397C95.5585,-87.8196 80.7374,-148.5156 72.0356,-184.1513"/>
<polygon fill="#000000" stroke="#000000" points="68.6228,-183.3732 69.6507,-193.9181 75.423,-185.0338 68.6228,-183.3732"/>
<text text-anchor="middle" x="93.7354" y="-121.8" font-family="Times,serif" font-size="14.00" fill="#000000">0</text>
</g>
</g>
</svg>
