<?xml version="1.0" encoding="UTF-8" standalone="no"?>
<!DOCTYPE svg PUBLIC "-//W3C//DTD SVG 1.1//EN"
 "http://www.w3.org/Graphics/SVG/1.1/DTD/svg11.dtd">
<!-- Generated by graphviz version 2.40.1 (20161225.0304)
 -->
<!-- Pages: 1 -->
<svg width="169pt" height="152pt"
 viewBox="0.00 0.00 168.98 152.00" xmlns="http://www.w3.org/2000/svg" xmlns:xlink="http://www.w3.org/1999/xlink">
<g id="graph0" class="graph" transform="scale(1 1) rotate(0) translate(4 148)">
<polygon fill="#ffffff" stroke="transparent" points="-4,4 -4,-148 164.9834,-148 164.9834,4 -4,4"/>
<text text-anchor="middle" x="80.4917" y="-6.8" font-family="Times,serif" font-size="14.00" fill="#000000">Sequence Detector for `0`</text>
<!-- A/0 -->
<g id="node1" class="node">
<title>A/0</title>
<ellipse fill="none" stroke="#000000" cx="67.9917" cy="-126" rx="27" ry="18"/>
<text text-anchor="middle" x="67.9917" y="-121.8" font-family="Times,serif" font-size="14.00" fill="#000000">A/0</text>
</g>
<!-- A/0&#45;&gt;A/0 -->
<g id="edge1" class="edge">
<title>A/0&#45;&gt;A/0</title>
<path fill="none" stroke="#000000" d="M92.5242,-133.752C103.4995,-134.4902 112.9917,-131.9063 112.9917,-126 112.9917,-122.0317 108.7068,-119.5632 102.566,-118.5944"/>
<polygon fill="#000000" stroke="#000000" points="102.6389,-115.0949 92.5242,-118.248 102.3976,-122.0908 102.6389,-115.0949"/>
<text text-anchor="middle" x="116.4917" y="-121.8" font-family="Times,serif" font-size="14.00" fill="#000000">1</text>
</g>
<!-- B/1 -->
<g id="node2" class="node">
<title>B/1</title>
<ellipse fill="none" stroke="#000000" cx="67.9917" cy="-40" rx="27" ry="18"/>
<text text-anchor="middle" x="67.9917" y="-35.8" font-family="Times,serif" font-size="14.00" fill="#000000">B/1</text>
</g>
<!-- A/0&#45;&gt;B/1 -->
<g id="edge2" class="edge">
<title>A/0&#45;&gt;B/1</title>
<path fill="none" stroke="#000000" d="M60.849,-108.3405C58.8651,-102.5903 56.9837,-96.1128 55.9917,-90 54.7865,-82.5733 55.6755,-74.6173 57.4105,-67.2855"/>
<polygon fill="#000000" stroke="#000000" points="60.8374,-68.0374 60.2963,-57.4563 54.1209,-66.0654 60.8374,-68.0374"/>
<text text-anchor="middle" x="59.4917" y="-78.8" font-family="Times,serif" font-size="14.00" fill="#000000">0</text>
</g>
<!-- B/1&#45;&gt;A/0 -->
<g id="edge3" class="edge">
<title>B/1&#45;&gt;A/0</title>
<path fill="none" stroke="#000000" d="M67.9917,-58.2121C67.9917,-69.6086 67.9917,-84.5329 67.9917,-97.4762"/>
<polygon fill="#000000" stroke="#000000" points="64.4918,-97.7616 67.9917,-107.7616 71.4918,-97.7616 64.4918,-97.7616"/>
<text text-anchor="middle" x="71.4917" y="-78.8" font-family="Times,serif" font-size="14.00" fill="#000000">1</text>
</g>
<!-- B/1&#45;&gt;B/1 -->
<g id="edge4" class="edge">
<title>B/1&#45;&gt;B/1</title>
<path fill="none" stroke="#000000" d="M92.5242,-47.752C103.4995,-48.4902 112.9917,-45.9063 112.9917,-40 112.9917,-36.0317 108.7068,-33.5632 102.566,-32.5944"/>
<polygon fill="#000000" stroke="#000000" points="102.6389,-29.0949 92.5242,-32.248 102.3976,-36.0908 102.6389,-29.0949"/>
<text text-anchor="middle" x="116.4917" y="-35.8" font-family="Times,serif" font-size="14.00" fill="#000000">0</text>
</g>
</g>
</svg>
