<?xml version="1.0" encoding="UTF-8" standalone="no"?>
<!DOCTYPE svg PUBLIC "-//W3C//DTD SVG 1.1//EN"
 "http://www.w3.org/Graphics/SVG/1.1/DTD/svg11.dtd">
<!-- Generated by graphviz version 2.40.1 (20161225.0304)
 -->
<!-- Title: %3 Pages: 1 -->
<svg width="158pt" height="302pt"
 viewBox="0.00 0.00 158.00 302.00" xmlns="http://www.w3.org/2000/svg" xmlns:xlink="http://www.w3.org/1999/xlink">
<g id="graph0" class="graph" transform="scale(1 1) rotate(0) translate(4 298)">
<title>%3</title>
<polygon fill="#ffffff" stroke="transparent" points="-4,4 -4,-298 154,-298 154,4 -4,4"/>
<!-- A/0 -->
<g id="node1" class="node">
<title>A/0</title>
<ellipse fill="none" stroke="#000000" cx="76" cy="-276" rx="27" ry="18"/>
<text text-anchor="middle" x="76" y="-271.8" font-family="Times,serif" font-size="14.00" fill="#000000">A/0</text>
</g>
<!-- A/0&#45;&gt;A/0 -->
<g id="edge2" class="edge">
<title>A/0&#45;&gt;A/0</title>
<path fill="none" stroke="#000000" d="M100.5325,-283.752C111.5078,-284.4902 121,-281.9063 121,-276 121,-272.0317 116.7151,-269.5632 110.5743,-268.5944"/>
<polygon fill="#000000" stroke="#000000" points="110.6472,-265.0949 100.5325,-268.248 110.4059,-272.0908 110.6472,-265.0949"/>
<text text-anchor="middle" x="124.5" y="-271.8" font-family="Times,serif" font-size="14.00" fill="#000000">0</text>
</g>
<!-- B/0 -->
<g id="node2" class="node">
<title>B/0</title>
<ellipse fill="none" stroke="#000000" cx="27" cy="-190" rx="27" ry="18"/>
<text text-anchor="middle" x="27" y="-185.8" font-family="Times,serif" font-size="14.00" fill="#000000">B/0</text>
</g>
<!-- A/0&#45;&gt;B/0 -->
<g id="edge1" class="edge">
<title>A/0&#45;&gt;B/0</title>
<path fill="none" stroke="#000000" d="M56.6873,-262.9897C49.0877,-256.8885 40.9994,-248.9791 36,-240 32.3255,-233.4005 30.1022,-225.6208 28.7705,-218.1892"/>
<polygon fill="#000000" stroke="#000000" points="32.213,-217.5245 27.4231,-208.0743 25.2743,-218.4489 32.213,-217.5245"/>
<text text-anchor="middle" x="39.5" y="-228.8" font-family="Times,serif" font-size="14.00" fill="#000000">1</text>
</g>
<!-- B/0&#45;&gt;A/0 -->
<g id="edge4" class="edge">
<title>B/0&#45;&gt;A/0</title>
<path fill="none" stroke="#000000" d="M36.6607,-206.9555C43.7025,-219.3146 53.3683,-236.2791 61.3565,-250.2992"/>
<polygon fill="#000000" stroke="#000000" points="58.3276,-252.0532 66.3192,-259.0092 64.4097,-248.5878 58.3276,-252.0532"/>
<text text-anchor="middle" x="57.5" y="-228.8" font-family="Times,serif" font-size="14.00" fill="#000000">0</text>
</g>
<!-- C/0 -->
<g id="node3" class="node">
<title>C/0</title>
<ellipse fill="none" stroke="#000000" cx="70" cy="-104" rx="27" ry="18"/>
<text text-anchor="middle" x="70" y="-99.8" font-family="Times,serif" font-size="14.00" fill="#000000">C/0</text>
</g>
<!-- B/0&#45;&gt;C/0 -->
<g id="edge3" class="edge">
<title>B/0&#45;&gt;C/0</title>
<path fill="none" stroke="#000000" d="M35.7017,-172.5966C41.8031,-160.3939 50.0665,-143.867 56.9535,-130.093"/>
<polygon fill="#000000" stroke="#000000" points="60.1163,-131.5936 61.458,-121.084 53.8553,-128.463 60.1163,-131.5936"/>
<text text-anchor="middle" x="54.5" y="-142.8" font-family="Times,serif" font-size="14.00" fill="#000000">1</text>
</g>
<!-- C/0&#45;&gt;A/0 -->
<g id="edge6" class="edge">
<title>C/0&#45;&gt;A/0</title>
<path fill="none" stroke="#000000" d="M70.6313,-122.0977C71.676,-152.0454 73.772,-212.1302 75.0135,-247.7199"/>
<polygon fill="#000000" stroke="#000000" points="71.5226,-248.0462 75.3692,-257.9181 78.5184,-247.8021 71.5226,-248.0462"/>
<text text-anchor="middle" x="76.5" y="-185.8" font-family="Times,serif" font-size="14.00" fill="#000000">0</text>
</g>
<!-- D/1 -->
<g id="node4" class="node">
<title>D/1</title>
<ellipse fill="none" stroke="#000000" cx="98" cy="-18" rx="27" ry="18"/>
<text text-anchor="middle" x="98" y="-13.8" font-family="Times,serif" font-size="14.00" fill="#000000">D/1</text>
</g>
<!-- C/0&#45;&gt;D/1 -->
<g id="edge5" class="edge">
<title>C/0&#45;&gt;D/1</title>
<path fill="none" stroke="#000000" d="M75.8016,-86.1807C79.631,-74.4191 84.7239,-58.7766 89.0655,-45.4416"/>
<polygon fill="#000000" stroke="#000000" points="92.4379,-46.3887 92.2058,-35.7964 85.7818,-44.2216 92.4379,-46.3887"/>
<text text-anchor="middle" x="88.5" y="-56.8" font-family="Times,serif" font-size="14.00" fill="#000000">1</text>
</g>
<!-- D/1&#45;&gt;A/0 -->
<g id="edge8" class="edge">
<title>D/1&#45;&gt;A/0</title>
<path fill="none" stroke="#000000" d="M100.7186,-36.132C102.6256,-49.8015 105.0052,-69.0308 106,-86 110.0327,-154.7923 104.15,-173.0088 88,-240 87.3197,-242.822 86.518,-245.7391 85.657,-248.6349"/>
<polygon fill="#000000" stroke="#000000" points="82.3011,-247.6385 82.5908,-258.2293 88.9689,-249.7694 82.3011,-247.6385"/>
<text text-anchor="middle" x="109.5" y="-142.8" font-family="Times,serif" font-size="14.00" fill="#000000">0</text>
</g>
<!-- D/1&#45;&gt;D/1 -->
<g id="edge7" class="edge">
<title>D/1&#45;&gt;D/1</title>
<path fill="none" stroke="#000000" d="M122.5325,-25.752C133.5078,-26.4902 143,-23.9063 143,-18 143,-14.0317 138.7151,-11.5632 132.5743,-10.5944"/>
<polygon fill="#000000" stroke="#000000" points="132.6472,-7.0949 122.5325,-10.248 132.4059,-14.0908 132.6472,-7.0949"/>
<text text-anchor="middle" x="146.5" y="-13.8" font-family="Times,serif" font-size="14.00" fill="#000000">1</text>
</g>
</g>
</svg>
