<?xml version="1.0" encoding="UTF-8" standalone="no"?>
<!DOCTYPE svg PUBLIC "-//W3C//DTD SVG 1.1//EN"
 "http://www.w3.org/Graphics/SVG/1.1/DTD/svg11.dtd">
<!-- Generated by graphviz version 2.40.1 (20161225.0304)
 -->
<!-- Pages: 1 -->
<svg width="198pt" height="324pt"
 viewBox="0.00 0.00 198.43 324.00" xmlns="http://www.w3.org/2000/svg" xmlns:xlink="http://www.w3.org/1999/xlink">
<g id="graph0" class="graph" transform="scale(1 1) rotate(0) translate(4 320)">
<polygon fill="#ffffff" stroke="transparent" points="-4,4 -4,-320 194.4258,-320 194.4258,4 -4,4"/>
<text text-anchor="middle" x="95.2129" y="-6.8" font-family="Times,serif" font-size="14.00" fill="#000000">Moore Machine to detect `011`</text>
<!-- A/0 -->
<g id="node1" class="node">
<title>A/0</title>
<ellipse fill="none" stroke="#000000" cx="113.2129" cy="-298" rx="27" ry="18"/>
<text text-anchor="middle" x="113.2129" y="-293.8" font-family="Times,serif" font-size="14.00" fill="#000000">A/0</text>
</g>
<!-- A/0&#45;&gt;A/0 -->
<g id="edge1" class="edge">
<title>A/0&#45;&gt;A/0</title>
<path fill="none" stroke="#000000" d="M137.7454,-305.752C148.7207,-306.4902 158.2129,-303.9063 158.2129,-298 158.2129,-294.0317 153.928,-291.5632 147.7872,-290.5944"/>
<polygon fill="#000000" stroke="#000000" points="147.8601,-287.0949 137.7454,-290.248 147.6187,-294.0908 147.8601,-287.0949"/>
<text text-anchor="middle" x="161.7129" y="-293.8" font-family="Times,serif" font-size="14.00" fill="#000000">1</text>
</g>
<!-- B/0 -->
<g id="node2" class="node">
<title>B/0</title>
<ellipse fill="none" stroke="#000000" cx="73.2129" cy="-212" rx="27" ry="18"/>
<text text-anchor="middle" x="73.2129" y="-207.8" font-family="Times,serif" font-size="14.00" fill="#000000">B/0</text>
</g>
<!-- A/0&#45;&gt;B/0 -->
<g id="edge2" class="edge">
<title>A/0&#45;&gt;B/0</title>
<path fill="none" stroke="#000000" d="M105.1183,-280.5966C99.5339,-268.5902 92.0025,-252.3977 85.6594,-238.76"/>
<polygon fill="#000000" stroke="#000000" points="88.6863,-236.9686 81.2954,-229.3775 82.3393,-239.9208 88.6863,-236.9686"/>
<text text-anchor="middle" x="98.7129" y="-250.8" font-family="Times,serif" font-size="14.00" fill="#000000">0</text>
</g>
<!-- B/0&#45;&gt;B/0 -->
<g id="edge3" class="edge">
<title>B/0&#45;&gt;B/0</title>
<path fill="none" stroke="#000000" d="M97.7454,-219.752C108.7207,-220.4902 118.2129,-217.9063 118.2129,-212 118.2129,-208.0317 113.928,-205.5632 107.7872,-204.5944"/>
<polygon fill="#000000" stroke="#000000" points="107.8601,-201.0949 97.7454,-204.248 107.6187,-208.0908 107.8601,-201.0949"/>
<text text-anchor="middle" x="121.7129" y="-207.8" font-family="Times,serif" font-size="14.00" fill="#000000">0</text>
</g>
<!-- C/0 -->
<g id="node3" class="node">
<title>C/0</title>
<ellipse fill="none" stroke="#000000" cx="52.2129" cy="-126" rx="27" ry="18"/>
<text text-anchor="middle" x="52.2129" y="-121.8" font-family="Times,serif" font-size="14.00" fill="#000000">C/0</text>
</g>
<!-- B/0&#45;&gt;C/0 -->
<g id="edge4" class="edge">
<title>B/0&#45;&gt;C/0</title>
<path fill="none" stroke="#000000" d="M59.7631,-196.1969C55.5279,-190.2551 51.3896,-183.1893 49.2129,-176 47.1134,-169.0659 46.6982,-161.3495 47.0933,-154.0944"/>
<polygon fill="#000000" stroke="#000000" points="50.5961,-154.2484 48.1502,-143.9397 43.6337,-153.5236 50.5961,-154.2484"/>
<text text-anchor="middle" x="52.7129" y="-164.8" font-family="Times,serif" font-size="14.00" fill="#000000">1</text>
</g>
<!-- C/0&#45;&gt;B/0 -->
<g id="edge5" class="edge">
<title>C/0&#45;&gt;B/0</title>
<path fill="none" stroke="#000000" d="M56.5585,-143.7964C59.4012,-155.4378 63.174,-170.8882 66.4098,-184.1396"/>
<polygon fill="#000000" stroke="#000000" points="63.0893,-185.2965 68.8617,-194.1807 69.8895,-183.6359 63.0893,-185.2965"/>
<text text-anchor="middle" x="66.7129" y="-164.8" font-family="Times,serif" font-size="14.00" fill="#000000">0</text>
</g>
<!-- D/1 -->
<g id="node4" class="node">
<title>D/1</title>
<ellipse fill="none" stroke="#000000" cx="115.2129" cy="-40" rx="27" ry="18"/>
<text text-anchor="middle" x="115.2129" y="-35.8" font-family="Times,serif" font-size="14.00" fill="#000000">D/1</text>
</g>
<!-- C/0&#45;&gt;D/1 -->
<g id="edge6" class="edge">
<title>C/0&#45;&gt;D/1</title>
<path fill="none" stroke="#000000" d="M64.0627,-109.8241C73.4186,-97.0525 86.6252,-79.0245 97.2753,-64.4863"/>
<polygon fill="#000000" stroke="#000000" points="100.1159,-66.5312 103.202,-56.3958 94.4689,-62.3945 100.1159,-66.5312"/>
<text text-anchor="middle" x="90.7129" y="-78.8" font-family="Times,serif" font-size="14.00" fill="#000000">1</text>
</g>
<!-- D/1&#45;&gt;A/0 -->
<g id="edge7" class="edge">
<title>D/1&#45;&gt;A/0</title>
<path fill="none" stroke="#000000" d="M119.9623,-57.8869C128.2738,-91.6566 143.7098,-167.0633 134.2129,-230 132.1389,-243.7446 127.8322,-258.541 123.6558,-270.8106"/>
<polygon fill="#000000" stroke="#000000" points="120.2829,-269.8493 120.23,-280.444 126.8783,-272.1948 120.2829,-269.8493"/>
<text text-anchor="middle" x="139.7129" y="-164.8" font-family="Times,serif" font-size="14.00" fill="#000000">1</text>
</g>
<!-- D/1&#45;&gt;B/0 -->
<g id="edge8" class="edge">
<title>D/1&#45;&gt;B/0</title>
<path fill="none" stroke="#000000" d="M110.8567,-57.8397C103.536,-87.8196 88.7149,-148.5156 80.0132,-184.1513"/>
<polygon fill="#000000" stroke="#000000" points="76.6004,-183.3732 77.6282,-193.9181 83.4006,-185.0338 76.6004,-183.3732"/>
<text text-anchor="middle" x="101.7129" y="-121.8" font-family="Times,serif" font-size="14.00" fill="#000000">0</text>
</g>
</g>
</svg>
